**ABCDEFGHIJKLMNOPQRSTUVWXYZabcdefghijklmnopqrstuvwxyz**************************
**PARASOLID !"#$%&'()*+,-./:;<=>?@[\]^_`{|}~0123456789**************************
**PART1;
MC=unknown;
MC_MODEL=unknown;
MC_ID=unknown;
OS=unknown;
OS_RELEASE=unknown;
FRU=Parasolid 33.1.200;
APPL=Onshape;
SITE=unknown;
USER=unknown;
FORMAT=text;
GUISE=transmit;
KEY=BTGapi::writeModels_.xmt;
FILE=BTGapi::writeModels_.xmt;
DATE=2021-06-27T09:37:21 (UTC);
**PART2;
SCH=SCH_3301200_33103;
USFLD_SIZE=0;
**PART3;
**END_OF_HEADER*****************************************************************
T51 : TRANSMIT FILE created by modeller version 330120023 SCH_3301200_33103_1300
6230 0 12 35 CCCI7 lattice222 0 CCCI4 mesh1006 0 I8 polyline1008 0 CCCCCCCDI5 ow
ner1040 0 CCCCCCI13 boundary_mesh1006 0 I17 boundary_polyline1008 0 CCCA16 index
_map_offset0 0 1 dA9 index_map82 0 A17 node_id_index_map82 0 A20 schema_embeddin
g_map82 0 A5 child12 0 A14 lowest_node_id0 0 1 dA16 mesh_offset_data206 0 Z1 505
 2 3 0 0 0 0 0 0 0 1e3 1e-8 0 4 5 1 0 1 1 6 7 8 9 0 0 10 11 12 0 0 0 0 0 0 0 81
 255 1 2 489 13 1 14 0 0 0 15 70 11 CI9 list_type0 0 1 uI10 notransmit0 0 1 lCCC
DCCDI12 finger_index0 0 1 dI12 finger_block1012 0 CZ3 0 4 T1 0 0 5 20 1 16 16 13
 255 6 68 0 1 0 17 0 0 18 0 50 255 7 62 0 19 20 0 0 +0 -.09 -.0025 0 -1 0 1 0 0
 31 255 8 23 0 11 21 0 0 -0 0 -.105 0 1 612323399573677e-31 0 -612323399573677e-
31 1 .02 29 255 9 330 0 12 22 0 -.01322875655532296 -.005 .12 19 8 CCCCCCCA5 own
er12 0 Z10 5 0 1 18 0 23 V0 16 255 11 13 24 ?25 0 26 8 0 0 1 18 255 12 328 27 28
 0 29 9 ?1 81 1 27 474 30 12 0 0 31 32 33 17 255 28 0 34 35 36 12 37 38 0 39 -18
 29 184 40 41 12 42 22 ?1 81 1 40 472 30 29 0 0 43 31 44 17 41 0 45 46 47 29 48
 49 0 50 +18 42 265 51 52 29 53 54 ?1 29 22 186 0 29 55 9 .01322875655532298 -.0
05 .09 29 55 315 0 56 57 22 .025 -.005 .09 18 56 257 58 59 60 61 55 ?1 29 57 317
 0 61 62 55 .01322875655532296 -.005 .12 18 61 263 63 64 56 65 57 ?1 29 62 318 0
 65 54 57 .025 -.005 .12 18 65 259 66 67 61 68 62 ?1 29 54 319 0 42 69 62 .025 -
.02 .09 29 69 320 0 53 70 54 .01322875655532296 -.02 .09 18 53 261 31 71 42 72 6
9 ?1 29 70 321 0 72 73 69 .01322875655532296 -.02 .12 18 72 269 43 74 53 60 70 ?
1 29 73 322 0 60 75 70 .025 -.02 .12 18 60 255 76 77 72 56 73 ?1 29 75 459 0 78
 79 73 -.01322875655532298 -.005 .09 18 78 405 80 35 81 82 75 ?1 29 79 461 0 82
 83 75 -.025 -.005 .12 18 82 407 84 37 78 85 79 ?1 29 83 462 0 85 86 79 -.025 -.
005 .09 18 85 401 87 88 82 0 83 ?1 29 86 463 0 68 89 83 -.01322875655532298 -.02
 .09 18 68 399 90 91 65 92 86 ?1 29 89 464 0 92 93 86 -.01322875655532296 -.02 .
12 18 92 403 32 94 68 95 89 ?1 29 93 465 0 95 96 89 -.025 -.02 .12 18 95 411 97
 98 92 81 93 ?1 29 96 466 0 81 0 93 -.025 -.02 .09 18 81 413 99 100 95 78 96 ?1
 81 1 99 414 30 81 0 0 97 101 102 17 100 0 103 104 98 81 105 106 0 107 +15 255 1
03 434 0 104 108 0 17 104 0 103 109 100 68 110 111 0 112 -17 98 0 103 100 109 95
 94 113 0 114 +17 105 0 115 116 107 95 100 106 0 0 -16 106 388 117 ?100 113 118
 119 0 0 1 17 107 0 115 105 120 81 88 121 0 110 -15 115 430 0 120 122 0 17 120 0
 115 107 116 85 36 123 0 124 +17 88 0 125 126 110 85 107 121 0 120 +16 121 358 1
27 ?88 128 111 129 0 0 1 17 110 0 125 88 91 81 104 111 0 0 +15 125 418 0 126 130
 0 17 91 0 125 110 126 68 131 132 0 104 -16 111 355 133 ?110 121 134 135 0 0 1 8
1 1 133 357 30 111 0 0 136 127 137 16 134 361 138 ?112 111 113 139 0 0 1 30 255
 135 455 0 111 139 140 0 +-.0191143782776615 -.02 .09 -1 0 0 31 139 456 0 134 14
1 135 0 +-867361737988404e-33 -.02 .105 0 -1 0 0 0 -1 .02 30 140 454 0 123 135 1
42 0 +-.025 -.005 .105 3469446951953615e-31 0 -1 16 123 379 143 ?120 38 0 140 0
 0 1 30 142 453 0 38 140 144 0 +-.0191143782776615 -.005 .12 -1 0 0 16 38 371 14
5 ?37 146 123 142 0 0 1 31 144 452 0 146 142 147 0 +-867361737988404e-33 -.005 .
105 0 -1 0 0 0 -1 .02 16 146 394 148 ?35 118 38 144 0 0 1 30 147 451 0 118 144 1
49 0 +-.0191143782776615 -.005 .09 -1 0 0 16 118 391 150 ?124 106 146 147 0 0 1
 30 149 450 0 132 147 151 0 +-.01322875655532298 -.02 .09 0 1 0 16 132 366 152 ?
131 153 154 149 0 0 1 30 151 449 0 154 149 155 0 +-.01322875655532296 -.02 .12 0
 1 0 16 154 374 156 ?39 132 128 151 0 0 1 30 155 448 0 128 151 129 0 +-.025 -.02
 .12 0 1 0 16 128 382 157 ?116 154 121 155 0 0 1 30 129 447 0 121 155 158 0 +-.0
25 -.02 .09 0 1 0 30 158 314 0 159 129 160 0 +.025 -.02 .105 3469446951953615e-3
1 0 -1 16 159 211 161 ?162 163 49 158 0 0 1 30 160 313 0 163 158 164 0 +.0191143
782776615 -.02 .12 -1 0 0 16 163 241 165 ?74 166 159 160 0 0 1 31 164 312 0 166
 160 167 0 +0 -.02 .105 0 -1 0 0 0 -1 .02 16 166 223 168 ?169 170 163 164 0 0 1
 30 167 311 0 170 164 171 0 +.0191143782776615 -.02 .09 -1 0 0 16 170 233 172 ?1
73 174 166 167 0 0 1 30 171 310 0 153 167 175 0 +.025 -.005 .105 346944695195361
5e-31 0 -1 16 153 244 176 ?47 177 132 171 0 0 1 30 175 309 0 177 171 178 0 +.019
1143782776615 -.005 .12 -1 0 0 16 177 217 179 ?64 180 153 175 0 0 1 31 178 308 0
 180 175 181 0 +0 -.005 .105 0 -1 0 0 0 -1 .02 16 180 250 182 ?46 49 177 178 0 0
 1 30 181 307 0 49 178 183 0 +.0191143782776615 -.005 .09 -1 0 0 16 49 247 184 ?
41 159 180 181 0 0 1 30 183 306 0 174 181 185 0 +.025 -.02 .09 0 1 0 16 174 214
 186 ?59 187 170 183 0 0 1 30 185 305 0 187 183 188 0 +.01322875655532296 -.02 .
09 0 1 0 16 187 236 189 ?50 190 174 185 0 0 1 30 188 304 0 190 185 191 0 +.01322
875655532296 -.02 .12 0 1 0 16 190 228 192 ?193 194 187 188 0 0 1 30 191 303 0 1
94 188 195 0 +.025 -.02 .12 0 1 0 16 194 220 196 ?67 197 190 191 0 0 1 31 195 17
5 0 198 191 199 0 -0 -.09 -.105 0 -1 0 0 0 -1 .025 16 198 148 200 ?201 202 197 1
95 0 0 1 31 199 174 0 197 195 203 0 -0 -.03 -.105 0 -1 0 0 0 -1 .025 16 197 151
 204 ?205 198 194 199 0 0 1 31 203 21 0 202 199 21 0 -0 -.09 .105 0 -1 0 0 0 -1
 .02 16 202 6 206 ?207 26 198 203 0 0 1 31 21 22 0 26 203 8 0 -0 0 .105 0 -1 0 0
 0 -1 .02 16 26 9 208 ?209 11 202 21 0 0 1 81 1 208 78 30 26 0 0 0 206 210 17 20
9 0 211 209 209 0 212 26 0 0 +15 211 11 0 209 213 0 17 212 0 214 212 212 0 209 2
6 0 0 -15 214 10 0 212 17 215 14 255 17 2 216 ?19 0 214 6 217 +0 0 213 0 23 15 2
15 7 0 207 17 218 17 207 0 215 207 207 0 219 202 0 0 +15 218 182 0 220 17 221 17
 220 0 218 169 222 53 50 187 0 0 -15 221 326 0 223 17 0 17 223 0 221 112 224 92
 39 154 0 0 -17 112 0 221 131 223 68 109 134 0 0 +17 224 0 221 223 131 12 35 146
 0 0 -17 39 0 225 37 94 12 223 154 0 224 +15 225 426 0 37 226 0 17 37 0 225 114
 39 82 28 38 0 116 +17 94 0 225 39 114 92 98 113 0 109 -17 114 0 225 94 37 95 11
6 128 0 105 -16 113 385 227 ?98 134 106 141 0 0 1 17 109 0 103 98 104 92 112 134
 0 223 -81 1 227 387 30 113 0 0 157 117 228 30 141 457 0 113 119 139 0 +-.019114
3782776615 -.02 .12 -1 0 0 30 119 458 0 106 0 141 0 +-.025 -.02 .105 34694469519
53615e-31 0 -1 80 255 1 30 229 230 9000 0 0 0 0 3 6 0 0 0 FFTFTFTTFFFFFF1 81 1 1
57 384 30 128 0 0 143 227 231 81 1 117 390 30 106 0 0 227 150 232 82 255 3 228 1
9 13 1 81 1 150 393 30 118 0 0 117 87 233 82 3 232 19 23 1 81 1 87 402 30 85 0 0
 150 84 234 82 3 233 19 18 1 81 1 84 408 30 82 0 0 87 97 235 82 3 234 19 4 0 81
 1 97 412 30 95 0 0 84 99 236 82 3 235 19 10 0 82 3 236 19 11 0 81 1 143 381 30
 123 0 0 145 157 237 82 3 231 19 5 1 81 1 145 373 30 38 0 0 127 143 238 82 3 237
 19 22 1 81 1 127 360 30 121 0 0 133 145 239 82 3 238 19 12 1 82 3 239 19 2 1 79
 255 9 230 BTI/DetId17 116 0 115 120 105 82 114 128 0 36 +17 36 0 34 28 124 82 1
20 123 0 0 -15 34 438 0 124 240 0 17 124 0 34 36 35 85 126 118 0 0 +17 35 0 34 1
24 28 78 224 146 0 126 +17 126 0 125 91 88 78 124 118 0 131 -17 131 0 221 224 11
2 78 91 132 0 0 +14 240 435 241 ?0 108 34 6 242 -0 0 0 108 23 81 1 241 505 243 2
40 244 0 245 0 246 14 108 431 245 ?240 122 103 6 247 +0 0 240 122 23 50 242 445
 0 240 247 248 0 +0 -.005 .105 0 -1 0 1 0 0 13 23 3 0 0 0 0 0 0 10 17 50 247 446
 0 108 0 242 0 +0 -.02 .105 0 -1 0 1 0 0 50 248 444 0 130 242 249 0 +-.019114378
2776615 -.02 .09 0 0 -1 -1 0 0 14 130 415 250 ?226 251 125 6 248 +0 0 226 251 23
 50 249 442 0 226 248 252 0 +-.0191143782776615 -.02 .12 0 0 -1 -1 0 0 14 226 42
3 253 ?122 130 225 6 249 -0 0 122 130 23 50 252 441 0 122 249 254 0 +-.025 -.02
 .105 1 0 3469446951953615e-31 3469446951953615e-31 0 -1 14 122 427 255 ?108 226
 115 6 252 -0 0 108 226 23 50 254 302 0 256 252 257 0 +0 -.02 .105 0 -1 0 1 0 0
 14 256 287 258 ?251 259 260 6 254 +0 0 251 259 23 50 257 301 0 251 254 261 0 +0
 -.005 .105 0 -1 0 1 0 0 14 251 291 262 ?130 256 45 6 257 -0 0 130 256 23 50 261
 300 0 259 257 263 0 +.0191143782776615 -.02 .09 0 0 -1 -1 0 0 14 259 283 264 ?2
56 265 266 6 261 +0 0 256 265 23 50 263 298 0 265 261 267 0 +.0191143782776615 -
.02 .12 0 0 -1 -1 0 0 14 265 275 268 ?259 269 270 6 263 -0 0 259 269 23 50 267 2
97 0 269 263 271 0 +.025 -.02 .105 1 0 3469446951953615e-31 3469446951953615e-31
 0 -1 14 269 271 272 ?265 273 274 6 267 +0 0 265 273 23 50 271 173 0 273 267 275
 0 +0 -.09 -.105 0 -1 0 1 0 0 14 273 161 276 ?269 277 278 6 271 +0 0 269 277 23
 51 255 275 171 0 277 271 279 0 +0 -.09 -.105 0 1 0 .025 0 0 1 14 277 156 280 ?2
73 281 282 6 275 +0 0 273 281 23 52 255 279 125 0 281 275 217 0 +0 -.03 -.105 0
 -1 0 .025 .1643989873053575 .986393923832144 0 0 -1 14 281 116 283 ?277 213 284
 6 279 +0 0 277 19 23 51 217 19 0 17 279 20 0 +0 -.09 .105 0 1 0 .02 0 0 1 54 25
5 20 20 0 213 217 7 0 +0 0 0 -1 0 0 .105 .02 0 0 1 14 213 12 285 ?281 19 286 6 2
0 +0 0 19 17 23 81 1 285 492 243 213 287 0 288 283 289 14 19 52 288 ?213 17 290
 6 7 +0 0 281 213 23 15 286 14 0 291 213 211 17 291 0 286 291 291 0 25 11 0 0 -1
7 25 0 284 25 25 0 291 11 0 0 +15 284 119 0 25 281 292 15 292 120 0 205 281 0 17
 205 0 292 205 205 0 293 197 0 0 +17 293 0 294 293 293 0 205 197 0 0 -15 294 160
 0 293 277 0 81 1 288 491 243 19 295 0 216 285 296 15 290 56 0 219 19 0 17 219 0
 290 219 219 0 207 202 0 0 -80 1 243 0 297 8001 0 0 0 0 3 5 0 0 0 FFFFTFTFFFFFFF
2 81 1 295 82 30 19 0 288 206 287 298 81 1 216 490 243 17 299 0 0 288 300 83 255
 3 296 .980392156862745 .796078431372549 .2627450980392155 81 1 299 486 30 17 0
 216 152 0 301 83 3 300 .980392156862745 .796078431372549 .2627450980392155 81 1
 152 485 30 132 0 0 189 299 302 82 3 301 20 0 2 81 1 189 484 30 187 0 0 192 152
 303 82 3 302 20 7 1 81 1 192 483 30 190 0 0 156 189 304 82 3 303 20 6 1 81 1 15
6 482 30 154 0 0 138 192 305 82 3 304 20 5 1 81 1 138 481 30 134 0 0 148 156 306
 82 3 305 20 4 1 81 1 148 480 30 146 0 0 168 138 307 82 3 306 20 3 1 81 1 168 47
9 30 166 0 0 182 148 308 82 3 307 20 2 1 81 1 182 478 30 180 0 0 90 168 309 82 3
 308 20 1 1 81 1 90 477 30 68 0 0 80 182 310 82 3 309 20 0 1 81 1 80 476 30 78 0
 0 32 90 311 82 3 310 20 7 0 81 1 32 475 30 92 0 0 27 80 312 82 3 311 20 6 0 82
 3 312 20 5 0 81 1 206 80 30 202 0 0 208 295 313 81 1 287 83 30 213 0 285 295 31
4 315 82 3 298 8 1 2 81 1 314 118 30 281 0 283 287 24 316 82 3 315 8 2 2 81 1 28
3 493 243 281 314 0 285 280 317 81 1 24 131 30 11 0 0 314 200 318 82 3 316 12 0
 2 81 1 200 150 30 198 0 0 24 319 320 82 3 318 13 0 1 81 1 319 158 30 277 0 280
 200 321 322 82 3 320 14 1 1 81 1 280 494 243 277 319 0 283 276 323 81 1 321 163
 30 273 0 276 319 204 324 82 3 322 14 0 2 81 1 276 495 243 273 321 0 280 272 325
 81 1 204 179 30 197 0 0 321 161 326 82 3 324 14 2 2 81 1 161 213 30 159 0 0 204
 186 327 82 3 326 15 0 1 81 1 186 216 30 174 0 0 161 179 328 82 3 327 19 21 1 81
 1 179 219 30 177 0 0 186 196 329 82 3 328 19 4 1 81 1 196 222 30 194 0 0 179 17
2 330 82 3 329 19 14 1 81 1 172 235 30 170 0 0 196 165 331 82 3 330 19 3 1 81 1
 165 243 30 163 0 0 172 176 332 82 3 331 19 17 1 81 1 176 246 30 153 0 0 165 184
 333 82 3 332 19 15 1 81 1 184 249 30 49 0 0 176 76 334 82 3 333 19 20 1 81 1 76
 256 30 60 0 0 184 58 335 82 3 334 19 16 1 81 1 58 258 30 56 0 0 76 66 336 82 3
 335 19 7 0 81 1 66 260 30 65 0 0 58 51 337 82 3 336 19 8 0 81 1 51 266 30 42 0
 0 66 338 339 82 3 337 19 6 0 81 1 338 273 30 269 0 272 51 340 341 82 3 339 19 9
 0 81 1 272 496 243 269 338 0 276 268 342 81 1 340 277 30 265 0 268 338 343 344
 82 3 341 19 10 2 81 1 268 497 243 265 340 0 272 264 345 81 1 343 285 30 259 0 2
64 340 346 347 82 3 344 19 7 2 81 1 264 498 243 259 343 0 268 258 348 81 1 346 2
89 30 256 0 258 343 136 349 82 3 347 19 8 2 81 1 258 499 243 256 346 0 264 262 3
50 81 1 136 293 30 251 0 262 346 133 351 82 3 349 19 2 2 81 1 262 500 243 251 13
6 0 258 250 352 82 3 351 19 1 2 81 1 250 501 243 130 101 0 262 253 353 83 3 352
 .980392156862745 .796078431372549 .2627450980392155 81 1 101 417 30 130 0 250 9
9 354 355 81 1 253 502 243 226 354 0 250 255 356 83 3 353 .980392156862745 .7960
78431372549 .2627450980392155 81 1 354 425 30 226 0 253 101 357 358 81 1 255 503
 243 122 357 0 253 245 359 83 3 356 .980392156862745 .796078431372549 .262745098
0392155 81 1 357 429 30 122 0 255 354 360 361 81 1 245 504 243 108 360 0 255 241
 362 83 3 359 .980392156862745 .796078431372549 .2627450980392155 81 1 360 433 3
0 108 0 245 357 244 363 83 3 362 .980392156862745 .796078431372549 .262745098039
2155 81 1 244 437 30 240 0 241 360 364 365 82 3 363 19 5 2 81 1 364 469 30 1 0 3
66 244 63 367 82 3 365 19 4 2 81 1 366 487 368 1 364 14 0 0 369 81 1 63 470 30 6
1 0 0 364 43 370 82 3 367 8 0 3 81 1 43 471 30 72 0 0 63 40 371 82 3 370 20 0 0
 82 3 371 20 1 0 80 1 368 372 373 8038 0 0 0 0 0 0 0 0 0 TTTTTTTTTTTTTF10 81 1 1
4 488 372 1 366 2 0 0 374 98 255 4 369 65 120 108 101 80 1 372 375 376 8017 0 0
 0 0 0 0 0 0 0 TTTTTTTTTTTTTF3 84 255 4 374 Axle79 13 376 SDL/TYSA_NAME79 14 373
 SDL/TYSA_UNAME82 3 361 19 11 2 82 3 358 19 6 2 82 3 355 19 9 2 83 3 350 .980392
156862745 .796078431372549 .2627450980392155 83 3 348 .980392156862745 .79607843
1372549 .2627450980392155 83 3 345 .980392156862745 .796078431372549 .2627450980
392155 83 3 342 .980392156862745 .796078431372549 .2627450980392155 83 3 325 .98
0392156862745 .796078431372549 .2627450980392155 83 3 323 .980392156862745 .7960
78431372549 .2627450980392155 83 3 317 .980392156862745 .796078431372549 .262745
0980392155 82 3 313 8 2 1 79 15 297 SDL/TYSA_COLOUR83 3 289 .980392156862745 .79
6078431372549 .2627450980392155 15 282 159 0 201 277 294 17 201 0 282 201 201 0
 377 198 0 0 +17 377 0 278 377 377 0 201 198 0 0 -15 278 164 0 377 273 0 15 274
 274 0 378 269 0 17 378 0 274 77 59 65 47 153 0 0 -17 77 0 274 162 378 60 67 194
 0 379 -17 59 0 274 378 162 56 52 174 0 47 +17 47 0 45 41 380 56 378 153 0 48 +1
5 45 294 0 47 251 0 17 380 0 45 47 46 65 64 177 0 378 -17 48 0 266 52 50 56 41 4
9 0 0 -15 266 286 0 48 259 0 17 52 0 266 173 48 42 59 174 0 162 -17 50 0 266 48
 173 29 220 187 0 222 +17 173 0 266 50 52 53 381 170 0 220 +17 222 0 218 220 193
 29 46 180 0 0 -17 193 0 218 222 169 61 382 190 0 0 +17 46 0 45 380 41 61 222 18
0 0 193 +17 169 0 218 193 220 72 71 166 0 0 +17 382 0 270 379 64 72 193 190 0 16
9 -15 270 278 0 64 265 0 17 379 0 270 67 382 60 74 163 0 383 -17 64 0 270 382 67
 61 380 177 0 46 +17 67 0 270 64 379 65 77 194 0 380 +17 74 0 260 71 383 72 379
 163 0 382 +17 383 0 260 74 381 60 162 159 0 0 -15 260 290 0 383 256 0 17 381 0
 260 383 71 42 173 170 0 0 -17 162 0 274 59 77 42 383 159 0 381 +17 71 0 260 381
 74 53 169 166 0 173 -83 3 246 .980392156862745 .796078431372549 .26274509803921
55 82 3 210 8 0 1 82 3 137 19 19 1 82 3 102 19 5 0 81 1 31 473 30 53 0 0 40 27 3
84 82 3 384 20 3 0 82 3 44 20 2 0 82 3 33 20 4 0 19 18 69 0 1 0 10 6 S0 74 4 CI1
6 index_map_offset0 0 1 dCCZ20 16 5 0 0 299 366 14 2 241 0 0 0 0 0 0 0 0 0 0 0 0
 0 0 0 80 1 13 243 385 8040 0 0 0 0 3 5 0 0 0 TTTFFFFFFFFFFF2 83 3 15 .980392156
862745 .796078431372549 .2627450980392155 79 17 385 SDL/TYSA_COLOUR_21 0 
