**ABCDEFGHIJKLMNOPQRSTUVWXYZabcdefghijklmnopqrstuvwxyz**************************
**PARASOLID !"#$%&'()*+,-./:;<=>?@[\]^_`{|}~0123456789**************************
**PART1;
MC=unknown;
MC_MODEL=unknown;
MC_ID=unknown;
OS=unknown;
OS_RELEASE=unknown;
FRU=Parasolid 33.1.200;
APPL=Onshape;
SITE=unknown;
USER=unknown;
FORMAT=text;
GUISE=transmit;
KEY=BTGapi::writeModels_.xmt;
FILE=BTGapi::writeModels_.xmt;
DATE=2021-06-27T09:37:47 (UTC);
**PART2;
SCH=SCH_3301200_33103;
USFLD_SIZE=0;
**PART3;
**END_OF_HEADER*****************************************************************
T51 : TRANSMIT FILE created by modeller version 330120023 SCH_3301200_33103_1300
6230 0 12 35 CCCI7 lattice222 0 CCCI4 mesh1006 0 I8 polyline1008 0 CCCCCCCDI5 ow
ner1040 0 CCCCCCI13 boundary_mesh1006 0 I17 boundary_polyline1008 0 CCCA16 index
_map_offset0 0 1 dA9 index_map82 0 A17 node_id_index_map82 0 A20 schema_embeddin
g_map82 0 A5 child12 0 A14 lowest_node_id0 0 1 dA16 mesh_offset_data206 0 Z1 167
7 2 3 0 0 0 0 0 0 0 1e3 1e-8 0 4 0 1 0 1 1 5 6 7 0 0 0 8 9 0 0 0 0 0 0 0 0 81 25
5 1 2 1657 10 1 11 0 0 0 12 70 11 CI9 list_type0 0 1 uI10 notransmit0 0 1 lCCCDC
CDI12 finger_index0 0 1 dI12 finger_block1012 0 CZ3 0 4 T1 0 0 5 20 1 13 13 13 2
55 5 78 0 1 14 15 0 0 16 0 51 255 6 118 0 17 18 0 19 +-.08 0 .0291176187412962 -
.939692620785909 0 -.3420201433256685 .017 -.3420201433256685 0 .939692620785909
 38 12 CCCCCCCCCCCA17 intersection_data204 0 Z7 1318 0 20 21 0 0 +22 23 24 25 25
 26 19 8 CCCCCCCA5 owner12 0 Z8 94 0 1 27 0 28 V0 16 255 9 1339 29 ?30 0 31 32 0
 0 1 81 1 29 1492 33 9 0 0 34 35 36 17 255 30 0 37 30 30 0 38 9 0 0 +16 31 982 3
9 ?40 9 41 42 0 0 1 38 32 1458 0 9 43 44 0 +45 23 46 47 47 48 31 255 43 1461 0 4
9 50 32 0 +.16 .02 589805981832114e-31 0 1 0 0 0 -1 .022 31 44 1101 0 51 32 52 0
 +-.16 -.02 3469446951953615e-33 0 -1 0 0 0 -1 .02 51 45 522 0 53 54 22 55 +.08
 0 .0291176187412962 .939692620785909 0 -.3420201433256685 .018 .342020143325668
5 0 .939692620785909 51 23 1455 0 56 57 58 59 +.16 -.02 589805981832114e-31 0 1
 0 .022 0 0 1 40 255 23 46 0 1 23 .001528292909966305 .3965015043253655 ??.15427
00866513165 0 .0212407178084118 .1535884592834655 -.003852219385482875 .02104500
286624405 .151085188996972 -.00852941584683429 .0201128353242475 .14640109036680
2 -.01376406093127304 .01729363052652985 .142680871449186 -.01665600325303175 .0
1356642127609106 .1401326486451706 -.0178789108837825 .00944925130069888 .138510
4899668962 -.0177612127698773 .00471178931374624 .1380011025525782 -.01644567110
46694 .000220252350328143 .138415040095192 -.01394684585016056 -.004253175978939
77 .1397907249910384 -.00982568226482988 -.00869397513293901 .1413340344141108 -
.00487995952560959 -.0116439567478756 .1419200622498902 -.001163436971199224 -.0
1253458618990486 .1417568975675824 .00271623545379128 -.01229590231094562 .14074
34352311 .00699943245997973 -.01063883044799386 .1388951605456076 .0123917830709
9774 -.006211743040752 .1380000193372544 .0163392047981103 -291691416488622e-19
 .1385314585057596 .0177767571920707 .00480642550239567 .140210996391821 .017857
0111297273 .00961224927868009 .14262049228724 .016693975631079 .0134889848269658
 .145708687798201 .0143779308916629 .0167259796589231 .149534168986096 .01052168
58592942 .01935113384761755 .1533650936744075 .00444946631799656 .02097565298269
91 .1542700866513165 -568673000703269e-32 .0212407178084118 41 3 CI8 term_use0 0
 1 cCZ1 47 H?.1542700866513165 -568673000703269e-32 .0212407178084118 204 2 17 I
NTERSECTION_DATA17 Intersection data7 uv_type0 0 1 u6 values0 1 1 fT92 48 4 0 .0
724851111573994 6.01969641923911 .02 .215680476244756 .0719115294022751 5.987460
0837535 .01614778061451715 .493664961219203 .0698780448625419 5.86596728859936 .
01147058415316572 .870529168258654 .0664406567737175 5.61682087060224 .006235939
06872696 1.181914278459414 .0642195751511653 5.37687617004893 .00334399674696824
 1.45473833129747 .0632331840511936 5.15634066440294 .002121089116217515 1.73386
313746607 .0633291609392528 4.92823330925772 .002238787230122705 1.9894221949281
7 .0643866894608779 4.72240061810254 .003554328895330595 2.2551547919981 .066305
6661134715 4.5178378215695 .00605315414983944 2.564164065973845 .069117229821756
4 4.306124439204005 .01017431773517012 2.86704780201235 .0715764194329555 4.1546
48137898845 .0151200404743904 3.076912176580105 .0724317186752254 4.106182593693
585 .0188365630288008 3.293073280958905 .0721967593327968 4.11932468986169 .0227
162354537913 3.540983669766665 .0706776642976922 4.20764518331665 .0269994324599
7975 3.90091816225836 .0674267011450094 4.42614403818229 .03239178307099775 4.27
944272831156 .0644709787458657 4.71106310992127 .0363392047981103 4.554730489696
83 .0633164974376857 4.93263928356009 .0377767571920707 4.83851880127143 .063251
0582587854 5.16456114055276 .0378570111297273 5.09566879997844 .0641893221236639
 5.37241280612984 .036693975631079 5.35793075035371 .0659841592204876 5.57612040
518393 .0343779308916629 5.65887464885299 .0686810800518388 5.78740336396036 .03
05216858592942 6.03340346946326 .0717253534448156 5.97682895481023 .024449466317
99655 3159294448351495e-31 .0724851111573994 6.01969641923911 .02 14 255 56 1430
 60 ?61 62 37 5 23 +63 63 61 62 28 50 255 57 1456 0 64 65 23 0 +.08 .02 .0291176
1874129615 0 -1 0 -1 0 0 51 58 1454 0 66 23 67 0 +.16 -.02 3469446951953615e-33
 0 1 0 .02 0 0 1 141 255 59 7 68 68 23 141 68 32 59 59 23 14 66 1426 69 ?0 64 70
 5 58 -0 0 0 64 28 50 67 1094 0 71 58 72 0 +-.08 -.02 .02911761874129615 0 -1 0
 1 0 0 14 71 1079 73 ?74 75 76 5 67 +0 0 74 75 28 50 72 1093 0 75 67 77 0 +-.08
 .02 .02911761874129615 0 -1 0 1 0 0 14 75 1084 78 ?71 79 80 5 72 -0 0 71 79 28
 51 77 1092 0 74 72 81 82 --.16 -.02 589805981832114e-31 0 1 0 .022 0 0 1 14 74
 1067 83 ?62 71 84 5 77 -85 85 62 71 28 51 81 1091 0 62 77 86 0 --.16 -.02 34694
46951953615e-33 0 1 0 .02 0 0 1 141 82 21 87 87 77 38 21 968 0 88 89 7 0 +18 77
 90 91 91 92 141 87 42 82 82 77 38 42 1095 0 31 93 94 0 +6 77 95 96 96 97 31 93
 1098 0 98 99 42 0 +-.16 .02 589805981832114e-31 0 -1 0 0 0 -1 .022 31 94 548 0
 100 42 101 0 +-242861286636753e-31 -.02 .0582352374825924 0 -1 0 0 0 -1 .022 40
 23 95 0 1 23 .001162368465935024 .3961665943788085 ??-.1526922491125235 0 .0207
508259345644 -.151792229580502 -.00457298877073027 .020411577713171 -.1490348558
307374 -.00938887823707136 .01907264043983655 -.145488749782372 -.01331036218204
83 .0165355259100336 -.142154775336895 -.01591080741402705 .012866544086246 -.13
9856201123063 -.0169404525449736 .00884462361016614 -.1384275202265672 -.0166721
660416196 .00431603016959293 -.138000002499327 -.01524896607957645 1048667610821
39e-19 -.1384173192993502 -.01262082116151762 -.004264726693916265 -.13965128441
91696 -.00833270868897915 -.00836240241859189 -.1407132436457628 -.0039187737194
22615 -.01058399874018742 -.141063049690795 -.000147702379534087 -.0111978530525
5882 -.140758502282636 .003648836173062605 -.01066605670305034 -.139700783282365
4 .00816089594329613 -.00848185125137821 -.1383262453983462 .01299539091778416 -
.003774700182437485 -.1380337403304524 .01576209341666165 .001217963928042352 -.
1387802820951002 .016904374670874 .00580720001691671 -.1405436502422926 .0167340
6884329845 .01026890715245614 -.142940871802259 .01539082441725505 .013891945332
92736 -.1459608960115552 .012862938652738 .0169382277467756 -.1495226656947564 .
0087173150478971 .01934490800847 -.1519349362646765 .00418991896586166 .02046838
40824128 -.1526922491125235 -4105302725755385e-32 .02075082593456445 41 1 96 H?-
.1526922491125235 -4105302725755385e-32 .02075082593456445 204 92 97 4 0 .071169
981754304 .338603801512256 .02 6.01083138277358 .0704402697668043 .3823270084041
87 .01542701122926975 5.69808026391613 .0683071295195315 .521770283071314 .01061
112176292864 5.38377135607177 .065842624108475 .720289487392524 .006689637817951
71 5.07229522297522 .0639645786134027 .94610994298 .004089192585972935 4.7961127
9192116 .0631802032040091 1.157065302253614 .00305954745502639 4.5156828429698 .
0633865524857229 1.373332384149984 .00332783395838039 4.2545233489197 .064457399
8349165 1.57031965968102 .00475103392042356 3.97824011533323 .0663117584419921 1
.765882641784425 .00737917883848239 3.653865197314635 .0688727939980492 1.960710
682824815 .01166729131102084 3.374200688366955 .0706305399391781 2.0726949268628
1 .0160812262805774 3.150281138171365 .0711692006382996 2.10481120241239 .019852
2976204659 2.925272068916845 .0707011346224941 2.076954545719985 .02364883617306
26 2.640877864465485 .0689601616214412 1.9665879062013 .02816089594329615 2.2714
28527066715 .0660585780315829 1.74322679659012 .03299539091778415 1.954773804507
485 .0640761214830976 1.51540601069115 .03576209341666165 1.67691230823713 .0632
080300855734 1.30366703424806 .036904374670874 1.39368639391026 .063339060407244
7 1.085163053520796 .03673406884329845 1.132185780336586 .0643525597797749 .8873
71915798154 .03539082441725505 .858164059783664 .0661485642960505 .6920814216597
8 .032862938652738 .53842357284521 .0686723998562497 .496376489351028 .028717315
0478971 .2490318816038605 .0705549412623096 .3753452942231055 .02418991896586165
 6.28318530717958 .0711699817543038 .338603801512262 .02 16 100 378 102 ?103 104
 105 94 0 0 1 31 101 547 0 104 94 106 0 +-503069808033274e-31 -.02 .058235237482
5924 0 -1 0 0 0 -1 .02 16 104 342 107 ?108 109 100 101 0 0 1 31 106 546 0 110 10
1 111 0 +-242861286636753e-31 .02 .0582352374825924 0 -1 0 0 0 -1 .022 16 110 38
1 112 ?113 105 88 106 0 0 1 31 111 545 0 105 106 114 0 +-503069808033274e-31 .02
 .0582352374825924 0 -1 0 0 0 -1 .02 16 105 375 115 ?116 100 110 111 0 0 1 38 11
4 544 0 109 111 117 0 +22 54 118 119 119 120 16 109 405 121 ?122 123 104 114 0 0
 1 38 117 535 0 123 114 124 0 +45 54 125 126 126 127 51 22 520 0 128 45 18 129 +
.08 0 .0291176187412962 .939692620785909 0 -.3420201433256685 .017 .342020143325
6685 0 .939692620785909 51 54 523 0 130 131 45 132 --242861286636753e-31 -.02 .0
582352374825924 0 1 0 .022 0 0 1 40 23 118 0 1 23 .00116236846593503 .3961665943
788095 ??.01893643576054905 0 .069433960654749 .01940782616843275 -.004572988770
73027 .0685955600362533 .02065944471759535 -.00938887823707134 .0657974688967069
 .0217450937665433 -.01331036218204828 .0615745333790711 .0219406903075058 -.015
91080741402705 .05662089277649 .02111625966193975 -.0169404525449736 .0520624279
205262 .0192997689707823 -.0166721660416196 .0476749857017668 .01685971653949115
 -.0152489660795764 .0441019449359843 .01379197914079508 -.0126208211615176 .041
09518755909815 .01021277183342 -.00833270868897912 .03874936333031215 .007971249
27982263 -.00391877371942258 .03773013604614665 .0073087043567113 -.000147702379
534039 .0374847473528101 .00788383331073843 .00364883617306266 .0376963676906952
5 .0100980732746217 .00816089594329622 .038689677471675 .01417672876656902 .0129
9539091778424 .0414120284700663 .01761002327795615 .0157620934166617 .0450486124
348464 .01998804320344625 .016904374670874 .0490440390353188 .0215051548978912 .
0167340688432984 .0535953761896542 .0219976206947821 .01539082441725505 .0579116
887714319 .02164226052239355 .01286293865273796 .0621865106294205 .0204607709016
0205 .00871731504789702 .0663195960911744 .0193350209363251 .004189918965861615
 .0687308063281513 .01893643576054925 -430111768698722e-31 .0694339606547489 41
 1 119 H?.01893643576054925 -430111768698722e-31 .0694339606547489 204 92 120 4
 0 -.0711699817543041 1.036735502309984 .02 .272353924406003 -.0704402697668043
 1.080458709201914 .01542701122926975 .585105043263454 -.0683071295195315 1.2199
01983869042 .01061112176292866 .899413951107814 -.065842624108475 1.418421188190
252 .00668963781795172 1.210890084204364 -.0639645786134027 1.64424164377773 .00
4089192585972945 1.487072515258428 -.0631802032040091 1.855197003051345 .0030595
47455026385 1.76750246420979 -.0633865524857229 2.071464084947715 .0033278339583
8039 2.02866195825989 -.0644573998349165 2.26845136047875 .00475103392042358 2.3
04945191846355 -.066311758441992 2.464014342582155 .00737917883848241 2.62932010
986495 -.0688727939980492 2.658842383622545 .01166729131102088 2.90898461881263
 -.0706305399391781 2.77082662766054 .0160812262805774 3.13290416900822 -.071169
2006382995 2.80294290321012 .01985229762046595 3.357913238262745 -.0707011346224
94 2.775086246517715 .02364883617306265 3.64230744271411 -.0689601616214411 2.66
4719606999025 .0281608959432962 4.011756780112875 -.0660585780315829 2.441358497
387845 .03299539091778425 4.32841150267211 -.0640761214830975 2.213537711488875
 .03576209341666165 4.60627299894246 -.0632080300855734 2.001798735045785 .03690
4374670874 4.88949891326933 -.0633390604072447 1.783294754318525 .03673406884329
84 5.150999526843 -.0643525597797749 1.58550361659588 .03539082441725505 5.42502
124739593 -.0661485642960506 1.390213122457506 .03286293865273795 5.744761734334
38 -.0686723998562498 1.194508190148752 .028717315047897 6.03415342557573 -.0705
549412623097 1.073476995020832 .0241899189658616 253006922763953e-29 -.071169981
7543039 1.03673550230999 .02 14 130 478 133 ?134 15 135 5 54 -136 137 134 15 28
 51 131 524 0 79 138 54 0 --503069808033274e-31 -.02 .0582352374825924 0 1 0 .02
 0 0 1 141 132 117 139 140 54 141 139 124 141 132 54 141 140 114 132 141 54 141
 141 89 140 139 54 38 89 193 0 41 124 21 0 +18 54 142 143 143 144 16 41 191 145
 ?146 31 147 89 0 0 1 38 124 527 0 147 117 89 0 +6 54 148 149 149 150 51 18 116
 0 15 22 6 151 +-.08 0 .0291176187412962 -.939692620785909 0 -.3420201433256685
 .018 -.3420201433256685 0 .939692620785909 40 23 142 0 1 23 .001528292909966295
 .3965015043253645 ??-.0180426385084075 0 .0708234540224733 -.0184389922259718 .
003852219385482865 .0702353860521124 -.01975742277241745 .00852941584683429 .067
9122331626557 -.02153350058593875 .01376406093127304 .0627417164313266 -.0219875
496900736 .01665600325303175 .0574951978711213 -.021293135761763 .01787891088378
25 .0527032966449541 -.0194905995365382 .0177612127698773 .0480314867160214 -.01
69937086261369 .0164456711046694 .04426334186567765 -.01380114976894524 .0139468
4585016056 .0411025708759271 -.00989282332570217 .00982568226482989 .03858499456
688155 -.00681436808726014 .00487995952560958 .03731719771851955 -.0057929591499
8985 .001163436971199214 .0370116274153453 -.00607137358821191 -.002716235453791
29 .03708958963835825 -.00791287604125015 -.00699943245997975 .03770753929804645
 -.01217441352580352 -.01239178307099776 .03991083693843425 -.0168342133725842 -
.0163392047981103 .04407157764036535 -.0195353676733534 -.0177767571920707 .0481
174605594288 -.02133789098646075 -.0178570111297273 .0528785213010201 -.02198402
762152665 -.016693975631079 .0573970671323919 -.0216990327816915 -.0143779308916
6286 .0618618028465529 -.02045596076145765 -.01052168585929416 .0663317595338008
 -.01856552296369865 -.00444946631799655 .0700386843132592 -.01804263850840745 5
64090466292976e-33 .0708234540224733 41 1 143 H?-.01804263850840745 564090466292
976e-33 .0708234540224733 204 92 144 4 0 -.0724851111573994 5.32156471844138 .02
 .2156804762447555 -.0719115294022751 5.28932838295577 .02385221938548285 .49366
4961219203 -.0698780448625419 5.16783558780163 .0285294158468343 .87052916825865
4 -.0664406567737175 4.91868916980451 .03376406093127305 1.181914278459414 -.064
2195751511653 4.6787444692512 .03665600325303175 1.45473833129747 -.063233184051
1936 4.45820896360521 .0378789108837825 1.73386313746607 -.0633291609392527 4.23
010160845999 .0377612127698773 1.98942219492817 -.0643866894608778 4.02426891730
481 .0364456711046694 2.2551547919981 -.0663056661134714 3.81970612077177 .03394
684585016055 2.564164065973845 -.0691172298217563 3.60799273840628 .029825682264
8299 2.86704780201235 -.0715764194329554 3.456516437101115 .0248799595256096 3.0
76912176580105 -.0724317186752253 3.40805089289586 .0211634369711992 3.293073280
958905 -.0721967593327967 3.42119298906396 .0172837645462087 3.540983669766665 -
.0706776642976921 3.50951348251892 .01300056754002024 3.90091816225836 -.0674267
011450093 3.72801233738456 .00760821692900224 4.27944272831156 -.064470978745865
6 4.012931409123545 .00366079520188969 4.55473048969683 -.0633164974376857 4.234
507582762365 .00222324280792932 4.83851880127143 -.0632510582587854 4.4664294397
55035 .002142988870272685 5.09566879997844 -.0641893221236639 4.67428110533211 .
003306024368921 5.35793075035371 -.0659841592204876 4.8779887043862 .00562206910
833713 5.65887464885299 -.0686810800518388 5.08927166316264 .00947831414070583 6
.03340346946326 -.0717253534448156 5.2786972540125 .01555053368200345 3133835923
849865e-32 -.0724851111573994 5.32156471844138 .02 14 15 969 152 ?130 0 153 5 18
 +0 0 130 0 28 141 151 89 154 154 18 141 154 21 151 151 18 81 1 152 1658 155 15
 156 0 0 133 157 15 255 153 135 0 146 15 158 13 28 93 0 0 0 0 0 0 8 15 17 146 0
 153 146 146 0 159 41 0 0 +15 158 966 0 160 15 0 17 160 0 158 160 160 0 161 88 0
 0 +17 161 0 84 161 161 0 160 88 0 0 -16 88 1009 162 ?160 110 163 21 0 0 1 81 1
 162 1129 33 88 0 0 164 39 165 16 163 1036 166 ?167 88 51 52 0 0 1 81 1 166 1038
 33 163 0 0 168 169 170 17 167 0 76 167 167 0 171 163 0 0 +16 51 1033 168 ?172 1
63 98 44 0 0 1 31 52 1100 0 163 44 99 0 +-.16 -.02 589805981832114e-31 0 -1 0 0
 0 -1 .022 31 99 1099 0 173 52 93 0 +-.16 .02 3469446951953615e-33 0 -1 0 0 0 -1
 .02 16 173 1039 169 ?174 98 20 99 0 0 1 81 1 169 1041 33 173 0 0 166 175 176 17
 174 0 177 174 174 0 178 173 0 0 +16 98 1024 179 ?180 51 173 93 0 0 1 16 20 1369
 35 ?181 173 182 7 0 0 1 81 1 35 1493 33 20 0 0 29 183 184 17 181 0 185 181 181
 0 186 20 0 0 +16 182 1393 187 ?188 20 189 190 0 0 1 81 1 187 1395 33 182 0 0 19
1 192 193 17 188 0 194 188 188 0 195 182 0 0 +16 189 1399 196 ?197 182 49 198 0
 0 1 31 190 1463 0 182 198 50 0 +.16 -.02 589805981832114e-31 0 1 0 0 0 -1 .022
 31 198 1464 0 189 0 190 0 +.16 -.02 3469446951953615e-33 0 1 0 0 0 -1 .02 31 50
 1462 0 199 190 43 0 +.16 .02 3469446951953615e-33 0 1 0 0 0 -1 .02 16 199 1396
 192 ?200 49 0 50 0 0 1 81 1 192 1398 33 199 0 0 187 196 201 17 200 0 202 200 20
0 0 203 199 0 0 +16 49 1402 204 ?205 189 199 43 0 0 1 81 1 204 1404 33 49 0 0 19
6 206 207 17 205 0 208 205 205 0 209 49 0 0 +15 208 1450 0 205 64 210 17 209 0 2
11 209 209 0 205 49 0 0 -15 211 1435 0 209 56 0 14 64 1447 212 ?66 61 208 5 57 -
0 0 66 61 28 15 210 1451 0 203 64 0 17 203 0 210 203 203 0 200 199 0 0 -81 1 212
 1670 155 64 213 0 214 69 215 14 61 1442 214 ?64 56 216 5 65 +0 0 64 56 28 81 1
 214 1669 155 61 206 0 60 212 217 15 216 1445 0 195 61 218 50 65 1457 0 61 0 57
 0 +.08 -.02 .02911761874129615 0 -1 0 -1 0 0 17 195 0 216 195 195 0 188 182 0 0
 -15 218 1446 0 197 61 0 17 197 0 218 197 197 0 219 189 0 0 +17 219 0 70 219 219
 0 197 189 0 0 -15 70 1440 0 219 66 202 15 202 1441 0 200 66 0 80 255 1 155 0 22
0 8001 0 0 0 0 3 5 0 0 0 FFFFTFTFFFFFFF2 81 1 206 1444 33 61 0 214 204 213 221 8
1 1 60 1668 155 56 222 0 223 214 224 83 255 3 217 .0862745098039216 .31764705882
35295 .690196078431373 81 1 222 1497 33 56 0 60 225 226 227 81 1 223 1667 155 62
 191 0 83 60 228 83 3 224 .0862745098039216 .3176470588235295 .690196078431373 1
4 62 1059 223 ?56 74 229 5 81 +0 0 56 74 28 81 1 191 1291 33 62 0 223 230 187 23
1 81 1 83 1666 155 74 232 0 73 223 233 83 3 228 .0862745098039216 .3176470588235
295 .690196078431373 81 1 232 1134 33 74 0 83 234 230 235 81 1 73 1665 155 71 17
5 0 78 83 236 83 3 233 .0862745098039216 .3176470588235295 .690196078431373 81 1
 175 1081 33 71 0 73 169 164 237 81 1 78 1664 155 75 164 0 238 73 239 83 3 236 .
0862745098039216 .3176470588235295 .690196078431373 81 1 164 1086 33 75 0 78 175
 162 240 81 1 238 1663 155 79 241 0 242 78 243 83 3 239 .0862745098039216 .31764
70588235295 .690196078431373 14 79 485 238 ?75 53 244 5 131 +0 0 75 53 28 81 1 2
41 928 33 79 0 238 245 179 246 81 1 242 1662 155 53 183 0 247 238 248 83 3 243 .
0862745098039216 .3176470588235295 .690196078431373 14 53 458 242 ?79 249 250 5
 45 +0 0 79 249 28 81 1 183 1495 33 53 0 242 35 225 251 81 1 247 1661 155 249 25
2 0 253 242 254 83 3 248 .0862745098039216 .3176470588235295 .690196078431373 14
 249 468 247 ?53 134 255 5 138 -0 0 53 134 28 81 1 252 470 33 249 0 247 112 256
 257 81 1 253 1660 155 134 256 0 133 247 258 83 3 254 .0862745098039216 .3176470
588235295 .690196078431373 14 134 473 253 ?249 130 259 5 86 +0 0 249 130 28 81 1
 256 475 33 134 0 253 252 145 260 81 1 133 1659 155 130 245 0 152 253 261 83 3 2
58 .0862745098039216 .3176470588235295 .690196078431373 81 1 245 605 33 130 0 13
3 262 241 263 83 3 261 .0862745098039216 .3176470588235295 .690196078431373 80 1
 33 264 265 9000 0 0 0 0 3 6 0 0 0 FFTFTFTTFFFFFF1 81 1 262 604 33 137 0 266 267
 245 268 82 255 3 263 9 7 2 14 137 513 266 ?128 0 269 14 54 -130 136 128 0 270 8
1 1 266 1672 155 137 262 0 69 271 272 81 1 267 603 33 136 0 273 121 262 274 82 3
 268 9 6 2 14 136 428 273 ?17 85 275 276 54 -137 130 17 85 277 81 1 273 1676 155
 136 267 0 278 279 280 81 1 121 597 33 109 0 0 281 267 282 82 3 274 9 5 2 81 1 2
81 596 33 123 0 0 283 121 284 82 3 282 9 3 1 16 123 369 281 ?285 147 109 117 0 0
 1 81 1 283 595 33 147 0 0 145 281 286 82 3 284 9 2 1 16 147 306 283 ?287 41 123
 124 0 0 1 81 1 145 594 33 41 0 0 256 283 288 82 3 286 9 1 1 82 3 288 9 0 1 17 2
87 0 275 287 287 0 289 147 0 0 +15 275 431 0 287 136 0 17 289 0 290 289 289 0 28
7 147 0 0 -15 290 271 0 289 17 291 14 17 985 279 ?0 136 290 276 6 -0 0 0 136 277
 15 291 984 0 292 17 0 17 292 0 291 292 292 0 40 31 0 0 -17 40 0 293 40 40 0 292
 31 0 0 +15 293 1049 0 40 85 0 14 85 1046 278 ?136 0 293 276 77 -74 74 136 0 277
 81 1 278 1675 155 85 230 0 294 273 295 13 276 1005 0 1 0 85 0 0 16 0 13 277 109
0 0 0 0 0 0 0 296 85 19 296 1089 0 1 16 27 277 V0 19 16 77 0 1 0 296 5 S0 19 27
 1482 0 1 296 8 270 V0 13 270 1481 0 0 0 0 0 0 27 137 81 1 230 1135 33 85 0 278
 232 191 297 81 1 294 1674 155 63 226 0 271 278 298 83 3 295 .0862745098039216 .
3176470588235295 .690196078431373 14 63 1414 294 ?0 128 299 14 23 +56 56 0 128 2
70 81 1 226 1498 33 63 0 294 222 300 301 81 1 271 1673 155 128 225 0 266 294 302
 83 3 298 .0862745098039216 .3176470588235295 .690196078431373 14 128 453 271 ?6
3 137 185 14 22 -0 0 63 137 270 81 1 225 1496 33 128 0 271 183 222 303 83 3 302
 .0862745098039216 .3176470588235295 .690196078431373 82 3 303 17 2 2 15 185 131
6 0 181 128 304 13 14 1480 0 1 276 137 0 0 16 0 15 304 457 0 305 128 0 17 305 0
 304 305 305 0 122 109 0 0 -17 122 0 269 122 122 0 305 109 0 0 +15 269 516 0 122
 137 0 81 1 300 1654 33 66 0 69 226 0 306 82 3 301 17 4 2 81 1 69 1671 155 66 30
0 0 212 266 307 82 3 306 19 0 2 83 3 307 .0862745098039216 .3176470588235295 .69
0196078431373 15 299 1417 0 186 63 0 17 186 0 299 186 186 0 181 20 0 0 -82 3 297
 13 4 2 81 1 279 1677 155 17 234 0 273 0 308 81 1 234 1133 33 17 0 279 156 232 3
09 83 3 308 .0862745098039216 .3176470588235295 .690196078431373 81 1 156 1132 3
3 15 0 152 39 234 310 82 3 309 13 2 2 81 1 39 1130 33 31 0 0 162 156 311 82 3 31
0 13 1 2 82 3 311 13 1 1 17 285 0 312 285 285 0 313 123 0 0 +15 312 462 0 285 53
 0 17 313 0 314 313 313 0 285 123 0 0 -15 314 482 0 313 130 315 15 315 483 0 316
 130 317 17 316 0 315 316 316 0 103 100 0 0 -15 317 484 0 113 130 0 17 113 0 317
 113 113 0 318 110 0 0 +17 318 0 319 318 318 0 113 110 0 0 -15 319 472 0 318 249
 0 17 103 0 320 103 103 0 316 100 0 0 +15 320 477 0 103 134 0 83 3 280 .08627450
98039216 .3176470588235295 .690196078431373 83 3 272 .0862745098039216 .31764705
88235295 .690196078431373 79 255 9 265 BTI/DetId82 3 260 8 2 2 15 259 476 0 321
 134 320 50 86 526 0 134 81 138 0 +-.08 -.02 .02911761874129615 0 -1 0 1 0 0 50
 138 525 0 249 86 131 0 +-.08 .02 .02911761874129615 0 -1 0 1 0 0 17 321 0 259 3
21 321 0 108 104 0 0 -17 108 0 244 108 108 0 321 104 0 0 +15 244 445 0 108 79 32
2 15 322 446 0 323 79 0 17 323 0 322 323 323 0 116 105 0 0 -17 116 0 255 116 116
 0 323 105 0 0 +15 255 471 0 116 249 319 81 1 112 383 33 110 0 0 102 252 324 82
 3 257 8 1 2 81 1 102 380 33 100 0 0 115 112 325 82 3 324 8 0 1 81 1 115 377 33
 105 0 0 107 102 326 82 3 325 8 1 1 81 1 107 344 33 104 0 0 0 115 327 82 3 326 8
 2 1 82 3 327 8 3 1 82 3 251 17 1 2 15 250 1341 0 38 53 312 17 38 0 250 38 38 0
 30 9 0 0 -81 1 179 1026 33 98 0 0 241 168 328 82 3 246 11 0 2 81 1 168 1035 33
 51 0 0 179 166 329 82 3 328 12 0 1 82 3 329 12 3 1 82 3 240 12 1 2 82 3 237 12
 2 2 82 3 235 13 3 2 82 3 231 15 0 2 15 229 1077 0 172 62 330 17 172 0 229 172 1
72 0 331 51 0 0 +15 330 1078 0 178 62 0 17 178 0 330 178 178 0 174 173 0 0 -17 3
31 0 332 331 331 0 172 51 0 0 -15 332 1083 0 331 71 0 82 3 227 17 3 2 81 1 213 1
449 33 64 0 212 206 34 333 82 3 221 16 2 2 81 1 34 1491 33 1 0 334 213 29 335 82
 3 333 16 1 2 81 1 334 1655 336 1 34 11 0 0 337 82 3 335 6 0 3 80 1 336 338 339
 8038 0 0 0 0 0 0 0 0 0 TTTTTTTTTTTTTF10 81 1 11 1656 338 1 334 2 0 0 340 98 255
 5 337 66 111 103 105 101 80 1 338 341 342 8017 0 0 0 0 0 0 0 0 0 TTTTTTTTTTTTTF
3 84 255 5 340 Bogie79 13 342 SDL/TYSA_NAME79 14 339 SDL/TYSA_UNAME79 15 220 SDL
/TYSA_COLOUR83 3 215 .0862745098039216 .3176470588235295 .690196078431373 81 1 1
96 1401 33 189 0 0 192 204 343 82 3 207 16 0 1 82 3 343 16 3 1 82 3 201 16 2 1 1
5 194 1434 0 188 56 211 82 3 193 16 1 1 82 3 184 17 1 1 17 180 0 344 180 180 0 3
45 98 0 0 +15 344 1072 0 180 74 0 17 345 0 80 345 345 0 180 98 0 0 -15 80 1087 0
 345 75 177 15 177 1088 0 174 75 0 82 3 176 12 2 1 15 76 1082 0 167 71 332 17 17
1 0 346 171 171 0 167 163 0 0 -15 346 1071 0 171 74 344 82 3 170 12 1 1 82 3 165
 13 0 1 15 84 1070 0 161 74 346 17 159 0 135 159 159 0 146 41 0 0 -15 135 481 0
 159 130 314 83 3 157 .0862745098039216 .3176470588235295 .690196078431373 40 23
 148 0 1 23 .001162368465935024 .396166594378809 ??-.01893643576054915 0 .069433
9606547489 -.0194078261684328 .00457298877073027 .0685955600362533 -.02065944471
75954 .00938887823707133 .0657974688967069 -.02174509376654335 .0133103621820482
8 .0615745333790711 -.02194069030750585 .01591080741402705 .05662089277649 -.021
1162596619398 .0169404525449736 .0520624279205262 -.0192997689707823 .0166721660
416196 .0476749857017668 -.0168597165394912 .0152489660795764 .0441019449359843
 -.01379197914079512 .0126208211615176 .04109518755909815 -.01021277183342004 .0
0833270868897914 .03874936333031215 -.00797124927982266 .0039187737194226 .03773
013604614665 -.00730870435671132 .0001477023795340622 .0374847473528101 -.007883
83331073844 -.00364883617306264 .03769636769069525 -.0100980732746217 -.00816089
594329619 .03868967747167495 -.01417672876656904 -.01299539091778422 .0414120284
7006625 -.0176100232779562 -.01576209341666165 .0450486124348464 -.0199880432034
463 -.016904374670874 .0490440390353187 -.02150515489789125 -.0167340688432984 .
0535953761896542 -.02199762069478215 -.01539082441725505 .0579116887714319 -.021
6422605223936 -.01286293865273798 .0621865106294204 -.0204607709016021 -.0087173
1504789703 .0663195960911744 -.01933502093632515 -.004189918965861595 .068730806
3281513 -.0189364357605493 467457505109904e-31 .0694339606547489 41 1 149 H?-.01
89364357605493 467457505109904e-31 .0694339606547489 204 92 150 4 0 -.0711699817
54304 5.2464498048696 .02 .272353924406003 -.0704402697668043 5.20272659797767 .
02457298877073025 .585105043263454 -.0683071295195315 5.06328332331054 .02938887
823707135 .899413951107814 -.065842624108475 4.86476411898933 .0333103621820483
 1.210890084204362 -.0639645786134026 4.63894366340186 .03591080741402705 1.4870
72515258426 -.0631802032040091 4.427988304128245 .0369404525449736 1.76750246420
979 -.0633865524857229 4.21172122223187 .0366721660416196 2.02866195825989 -.064
4573998349164 4.014733946700835 .0352489660795764 2.304945191846355 -.0663117584
41992 3.81917096459743 .0326208211615176 2.62932010986495 -.0688727939980491 3.6
2434292355704 .02833270868897915 2.90898461881263 -.0706305399391781 3.512358679
519045 .0239187737194226 3.13290416900822 -.0711692006382995 3.480242403969465 .
02014770237953405 3.35791323826274 -.070701134622494 3.50809906066187 .016351163
82693735 3.642307442714105 -.0689601616214411 3.61846570018056 .0118391040567038
 4.011756780112875 -.0660585780315829 3.84182680979174 .00700460908221578 4.3284
1150267211 -.0640761214830975 4.06964759569071 .00423790658333833 4.606272998942
46 -.0632080300855733 4.2813865721338 .003095625329125995 4.88949891326933 -.063
3390604072447 4.49989055286106 .00326593115670158 5.150999526843 -.0643525597797
748 4.6976816905837 .00460917558274496 5.42502124739593 -.0661485642960505 4.892
97218472208 .00713706134726203 5.74476173433438 -.0686723998562497 5.08867711703
083 .01128268495210296 6.03415342557573 -.0705549412623096 5.20970831215875 .015
8100810341384 274975003005825e-29 -.0711699817543038 5.24644980486959 .02 141 12
9 114 347 347 22 141 347 7 129 129 22 40 23 125 0 1 23 .001528292909966305 .3965
015043253685 ??.0180426385084074 0 .0708234540224733 .0184389922259717 -.0038522
1938548286 .0702353860521124 .0197574227724174 -.00852941584683426 .067912233162
6557 .0215335005859387 -.01376406093127302 .0627417164313267 .02198754969007355
 -.01665600325303175 .0574951978711213 .02129313576176295 -.0178789108837825 .05
27032966449541 .01949059953653815 -.0177612127698773 .0480314867160214 .01699370
86261369 -.0164456711046694 .04426334186567765 .01380114976894522 -.013946845850
16056 .0411025708759271 .00989282332570215 -.00982568226482991 .0385849945668815
5 .00681436808726013 -.00487995952560961 .03731719771851955 .00579295914998983 -
.001163436971199234 .0370116274153453 .00607137358821188 .002716235453791275 .03
708958963835825 .00791287604125013 .00699943245997974 .03770753929804645 .012174
4135258035 .01239178307099774 .03991083693843425 .01683421337258415 .01633920479
81103 .04407157764036535 .01953536767335335 .0177767571920707 .0481174605594288
 .0213378909864607 .0178570111297273 .0528785213010201 .0219840276215266 .016693
975631079 .0573970671323919 .02169903278169145 .0143779308916629 .06186180284655
29 .02045596076145765 .0105216858592942 .0663317595338008 .0185655229636986 .004
44946631799658 .0700386843132592 .0180426385084074 -710146328978613e-32 .0708234
540224733 41 1 126 H?.0180426385084074 -710146328978613e-32 .0708234540224733 20
4 92 127 4 0 -.0724851111573995 .961620588738203 .02 .2156804762447555 -.0719115
294022752 .993856924223815 .01614778061451715 .493664961219202 -.069878044862542
 1.115349719377952 .01147058415316574 .870529168258653 -.0664406567737175 1.3644
96137375076 .00623593906872698 1.181914278459412 -.0642195751511654 1.6044408379
2838 .00334399674696825 1.45473833129747 -.0632331840511936 1.824976343574375 .0
0212108911621752 1.73386313746607 -.0633291609392528 2.053083698719595 .00223878
72301227 1.98942219492817 -.0643866894608779 2.258916389874775 .0035543288953305
95 2.2551547919981 -.0663056661134714 2.463479186407815 .00605315414983943 2.564
164065973845 -.0691172298217563 2.675192568773305 .0101743177351701 2.8670478020
1235 -.0715764194329554 2.82666887007847 .0151200404743904 3.0769121765801 -.072
4317186752254 2.875134414283725 .01883656302880075 3.293073280958905 -.072196759
3327967 2.861992318115625 .0227162354537913 3.540983669766665 -.0706776642976921
 2.773671824660665 .02699943245997975 3.90091816225836 -.0674267011450093 2.5551
72969795025 .03239178307099775 4.27944272831156 -.0644709787458657 2.27025389805
604 .0363392047981103 4.55473048969683 -.0633164974376857 2.048677724417225 .037
7767571920707 4.83851880127143 -.0632510582587854 1.816755867424555 .03785701112
97273 5.09566879997844 -.0641893221236639 1.608904201847475 .036693975631079 5.3
5793075035371 -.0659841592204877 1.405196602793386 .0343779308916629 5.658874648
85299 -.0686810800518389 1.19391364401695 .0305216858592942 6.03340346946326 -.0
717253534448157 1.004488053167086 .0244494663179966 3945257383214515e-31 -.07248
51111573995 .961620588738204 .02 40 23 90 0 1 23 .001528292909966305 .3965015043
253655 ??-.1542700866513165 0 .0212407178084118 -.1535884592834655 -.00385221938
5482875 .02104500286624405 -.151085188996972 -.00852941584683429 .02011283532424
75 -.146401090366802 -.01376406093127304 .01729363052652985 -.142680871449186 -.
01665600325303175 .01356642127609106 -.1401326486451706 -.0178789108837825 .0094
4925130069888 -.1385104899668962 -.0177612127698773 .00471178931374624 -.1380011
025525782 -.0164456711046694 .000220252350328143 -.138415040095192 -.01394684585
016056 -.00425317597893977 -.1397907249910384 -.00982568226482988 -.008693975132
93901 -.1413340344141108 -.00487995952560959 -.0116439567478756 -.14192006224989
02 -.001163436971199224 -.01253458618990486 -.1417568975675824 .0027162354537912
8 -.01229590231094562 -.1407434352311 .00699943245997973 -.01063883044799386 -.1
388951605456076 .01239178307099774 -.006211743040752 -.1380000193372544 .0163392
047981103 -291691416488622e-19 -.1385314585057596 .0177767571920707 .00480642550
239567 -.140210996391821 .0178570111297273 .00961224927868009 -.14262049228724 .
016693975631079 .0134889848269658 -.145708687798201 .0143779308916629 .016725979
6589231 -.149534168986096 .0105216858592942 .01935113384761755 -.153365093674407
5 .00444946631799656 .0209756529826991 -.1542700866513165 -568673000703269e-32 .
0212407178084118 41 1 91 H?-.1542700866513165 -568673000703269e-32 .021240717808
4118 204 92 92 4 0 .0724851111573994 .263488887940476 .02 6.06750483093483 .0719
115294022751 .2957252234260865 .01614778061451715 5.78952034596038 .069878044862
5419 .417218018580224 .01147058415316572 5.41265613892093 .0664406567737175 .666
364436577349 .00623593906872696 5.10127102872017 .0642195751511653 .906309137130
653 .00334399674696824 4.82844697588212 .0632331840511936 1.126844642776644 .002
121089116217515 4.54932216971352 .0633291609392528 1.354951997921866 .0022387872
30122705 4.293763112251415 .0643866894608779 1.560784689077045 .0035543288953305
95 4.02803051518149 .0663056661134715 1.765347485610085 .00605315414983944 3.719
02124120574 .0691172298217564 1.97706086797558 .01017431773517012 3.416137505167
235 .0715764194329555 2.12853716928074 .0151200404743904 3.206273130599485 .0724
317186752254 2.177002713486 .0188365630288008 2.99011202622068 .0721967593327968
 2.163860617317895 .0227162354537913 2.742201637412925 .0706776642976922 2.07554
0123862935 .02699943245997975 2.38226714492123 .0674267011450094 1.8570412689972
95 .03239178307099775 2.00374257886803 .0644709787458657 1.572122197258315 .0363
392047981103 1.728454817482755 .0633164974376857 1.350546023619494 .037776757192
0707 1.444666505908156 .0632510582587854 1.118624166626822 .0378570111297273 1.1
87516507201144 .0641893221236639 .910772501049745 .036693975631079 .925254556825
877 .0659841592204876 .707064901995657 .0343779308916629 .6243106583266 .0686810
800518388 .495781943219222 .0305216858592942 .2497818377163265 .0717253534448156
 .3063563523693585 .02444946631799655 0 .0724851111573994 .263488887940476 .02 1
5 37 1433 0 30 56 194 141 55 117 348 348 45 141 348 32 55 55 45 82 3 36 17 0 1 4
0 23 24 0 1 23 .001162368465935024 .3961665943788085 ??.1526922491125235 0 .0207
508259345644 .151792229580502 -.00457298877073027 .020411577713171 .149034855830
7374 -.00938887823707136 .01907264043983655 .145488749782372 -.0133103621820483
 .0165355259100336 .142154775336895 -.01591080741402705 .012866544086246 .139856
201123063 -.0169404525449736 .00884462361016614 .1384275202265672 -.016672166041
6196 .00431603016959293 .138000002499327 -.01524896607957645 104866761082139e-19
 .1384173192993502 -.01262082116151762 -.004264726693916265 .1396512844191696 -.
00833270868897915 -.00836240241859189 .1407132436457628 -.003918773719422615 -.0
1058399874018742 .141063049690795 -.000147702379534087 -.01119785305255882 .1407
58502282636 .003648836173062605 -.01066605670305034 .1397007832823654 .008160895
94329613 -.00848185125137821 .1383262453983462 .01299539091778416 -.003774700182
437485 .1380337403304524 .01576209341666165 .001217963928042352 .138780282095100
2 .016904374670874 .00580720001691671 .1405436502422926 .01673406884329845 .0102
6890715245614 .142940871802259 .01539082441725505 .01389194533292736 .1459608960
115552 .012862938652738 .0169382277467756 .1495226656947564 .0087173150478971 .0
1934490800847 .1519349362646765 .00418991896586166 .0204683840824128 .1526922491
125235 -4105302725755385e-32 .02075082593456445 41 1 25 H?.1526922491125235 -410
5302725755385e-32 .02075082593456445 204 92 26 4 0 .071169981754304 5.9445815056
6733 .02 .272353924406003 .0704402697668043 5.9008582987754 .01542701122926975 .
585105043263456 .0683071295195315 5.76141502410827 .01061112176292864 .899413951
107816 .065842624108475 5.56289581978706 .00668963781795171 1.210890084204364 .0
639645786134027 5.33707536419959 .004089192585972935 1.487072515258426 .06318020
32040091 5.12612000492597 .00305954745502639 1.767502464209785 .0633865524857229
 4.9098529230296 .00332783395838039 2.02866195825989 .0644573998349165 4.7128656
4749857 .00475103392042356 2.304945191846355 .0663117584419921 4.51730266539516
 .00737917883848239 2.62932010986495 .0688727939980492 4.32247462435477 .0116672
9131102084 2.90898461881263 .0706305399391781 4.210490380316775 .016081226280577
4 3.13290416900822 .0711692006382996 4.178374104767195 .0198522976204659 3.35791
323826274 .0707011346224941 4.2062307614596 .0236488361730626 3.6423074427141 .0
689601616214412 4.31659740097829 .02816089594329615 4.01175678011287 .0660585780
315829 4.53995851058947 .03299539091778415 4.328411502672105 .0640761214830976 4
.76777929648844 .03576209341666165 4.60627299894245 .0632080300855734 4.97951827
293153 .036904374670874 4.88949891326933 .0633390604072447 5.19802225365879 .036
73406884329845 5.150999526843 .0643525597797749 5.39581339138143 .03539082441725
505 5.42502124739592 .0661485642960505 5.59110388551981 .032862938652738 5.74476
173433438 .0686723998562497 5.78680881782856 .0287173150478971 6.03415342557573
 .0705549412623096 5.90784001295648 .02418991896586165 241488395632669e-29 .0711
699817543038 5.94458150566732 .02 141 19 124 349 349 6 141 349 42 19 19 6 74 4 C
I16 index_map_offset0 0 1 dCCZ20 13 5 0 0 300 334 11 2 279 0 0 0 0 0 0 0 0 0 0 0
 0 0 0 0 80 1 10 155 350 8040 0 0 0 0 3 5 0 0 0 TTTFFFFFFFFFFF2 83 3 12 .0862745
098039216 .3176470588235295 .690196078431373 79 17 350 SDL/TYSA_COLOUR_21 0 
