**ABCDEFGHIJKLMNOPQRSTUVWXYZabcdefghijklmnopqrstuvwxyz**************************
**PARASOLID !"#$%&'()*+,-./:;<=>?@[\]^_`{|}~0123456789**************************
**PART1;
MC=unknown;
MC_MODEL=unknown;
MC_ID=unknown;
OS=unknown;
OS_RELEASE=unknown;
FRU=Parasolid 33.1.200;
APPL=Onshape;
SITE=unknown;
USER=unknown;
FORMAT=text;
GUISE=transmit;
KEY=BTGapi::writeModels_.xmt;
FILE=BTGapi::writeModels_.xmt;
DATE=2021-06-27T09:36:52 (UTC);
**PART2;
SCH=SCH_3301200_33103;
USFLD_SIZE=0;
**PART3;
**END_OF_HEADER*****************************************************************
T51 : TRANSMIT FILE created by modeller version 330120023 SCH_3301200_33103_1300
6230 0 12 35 CCCI7 lattice222 0 CCCI4 mesh1006 0 I8 polyline1008 0 CCCCCCCDI5 ow
ner1040 0 CCCCCCI13 boundary_mesh1006 0 I17 boundary_polyline1008 0 CCCA16 index
_map_offset0 0 1 dA9 index_map82 0 A17 node_id_index_map82 0 A20 schema_embeddin
g_map82 0 A5 child12 0 A14 lowest_node_id0 0 1 dA16 mesh_offset_data206 0 Z1 55
 2 3 0 0 0 0 0 0 0 1e3 1e-8 0 4 5 1 0 1 1 6 7 8 0 0 0 9 10 0 0 0 0 0 0 0 0 81 25
5 1 2 52 11 1 12 0 0 0 13 70 11 CI9 list_type0 0 1 uI10 notransmit0 0 1 lCCCDCCD
I12 finger_index0 0 1 dI12 finger_block1012 0 CZ3 0 4 T1 0 0 5 20 1 14 14 13 255
 6 39 0 1 0 15 0 0 16 0 51 255 7 38 0 15 17 0 0 -0 -.3 1224646799147352e-33 0 1
 0 .02 0 0 1 31 255 8 33 0 18 19 0 0 +0 .3 1224646799147352e-33 0 -1 0 0 0 -1 .0
2 19 8 CCCCCCCA5 owner12 0 Z9 13 0 1 16 0 20 V0 16 255 10 7 21 ?22 0 18 19 0 0 1
 81 1 21 45 23 10 0 0 24 25 26 17 255 22 0 27 22 22 0 28 10 0 0 +16 18 28 24 ?29
 10 0 8 0 0 1 31 19 9 0 10 0 8 0 +0 -.3 1224646799147352e-33 0 -1 0 0 0 -1 .02 8
1 1 24 44 23 18 0 0 0 21 30 17 29 0 31 29 29 0 32 18 0 0 +15 255 31 36 0 29 15 0
 17 32 0 33 32 32 0 29 18 0 0 -15 33 27 0 32 34 0 14 255 34 23 35 ?0 36 33 6 17
 -0 0 0 36 20 81 1 35 55 37 34 38 0 39 0 40 14 36 1 39 ?34 15 27 6 41 +0 0 34 15
 20 50 255 17 32 0 34 41 7 0 +0 .3 -.0167968773841858 0 -1 0 1 0 0 13 20 14 0 0
 0 0 0 0 9 15 14 15 35 42 ?36 0 43 6 7 -0 0 36 0 20 81 1 42 53 37 15 25 0 0 39 4
4 15 43 34 0 28 15 31 17 28 0 43 28 28 0 22 10 0 0 -80 255 1 37 0 45 8001 0 0 0
 0 3 5 0 0 0 FFFFTFTFFFFFFF2 81 1 25 46 23 15 0 42 21 38 46 81 1 39 54 37 36 47
 0 42 35 48 83 255 3 44 .615686274509804 .811764705882353 .929411764705882 81 1
 47 48 23 36 0 39 38 49 50 83 3 48 .615686274509804 .811764705882353 .9294117647
05882 80 1 23 51 52 9000 0 0 0 0 3 6 0 0 0 FFTFTFTTFFFFFF1 81 1 38 47 23 34 0 35
 25 47 53 81 1 49 49 23 1 0 54 47 0 55 82 255 3 50 6 2 2 81 1 54 50 56 1 49 12 0
 0 57 82 3 55 6 0 3 80 1 56 58 59 8038 0 0 0 0 0 0 0 0 0 TTTTTTTTTTTTTF10 81 1 1
2 51 58 1 54 2 0 0 60 98 255 14 57 80 108 97 116 102 111 114 109 32 83 104 97 10
2 116 80 1 58 61 62 8017 0 0 0 0 0 0 0 0 0 TTTTTTTTTTTTTF3 84 255 14 60 Platform
 Shaft79 255 13 62 SDL/TYSA_NAME79 14 59 SDL/TYSA_UNAME82 3 53 6 1 2 79 9 52 BTI
/DetId82 3 46 6 0 2 79 15 45 SDL/TYSA_COLOUR50 41 3 0 36 0 17 0 +0 -.3 -.0167968
773841858 0 -1 0 1 0 0 15 27 6 0 22 36 0 83 3 40 .615686274509804 .8117647058823
53 .929411764705882 82 3 30 6 0 1 82 3 26 6 1 1 19 16 40 0 1 0 9 6 S0 74 4 CI16
 index_map_offset0 0 1 dCCZ20 14 5 0 0 49 54 12 2 35 0 0 0 0 0 0 0 0 0 0 0 0 0 0
 0 80 1 11 37 63 8040 0 0 0 0 3 5 0 0 0 TTTFFFFFFFFFFF2 83 3 13 .615686274509804
 .811764705882353 .929411764705882 79 17 63 SDL/TYSA_COLOUR_21 0 
