**ABCDEFGHIJKLMNOPQRSTUVWXYZabcdefghijklmnopqrstuvwxyz**************************
**PARASOLID !"#$%&'()*+,-./:;<=>?@[\]^_`{|}~0123456789**************************
**PART1;
MC=unknown;
MC_MODEL=unknown;
MC_ID=unknown;
OS=unknown;
OS_RELEASE=unknown;
FRU=Parasolid 33.1.200;
APPL=Onshape;
SITE=unknown;
USER=unknown;
FORMAT=text;
GUISE=transmit;
KEY=BTGapi::writeModels_.xmt;
FILE=BTGapi::writeModels_.xmt;
DATE=2021-06-27T09:36:29 (UTC);
**PART2;
SCH=SCH_3301200_33103;
USFLD_SIZE=0;
**PART3;
**END_OF_HEADER*****************************************************************
T51 : TRANSMIT FILE created by modeller version 330120023 SCH_3301200_33103_1300
6230 0 12 35 CCCI7 lattice222 0 CCCI4 mesh1006 0 I8 polyline1008 0 CCCCCCCDI5 ow
ner1040 0 CCCCCCI13 boundary_mesh1006 0 I17 boundary_polyline1008 0 CCCA16 index
_map_offset0 0 1 dA9 index_map82 0 A17 node_id_index_map82 0 A20 schema_embeddin
g_map82 0 A5 child12 0 A14 lowest_node_id0 0 1 dA16 mesh_offset_data206 0 Z1 540
 2 3 0 0 0 0 0 0 0 1e3 1e-8 0 4 5 1 0 1 1 6 7 8 9 0 0 10 11 12 0 0 0 0 0 0 0 81
 255 1 2 522 13 1 14 0 0 0 15 70 11 CI9 list_type0 0 1 uI10 notransmit0 0 1 lCCC
DCCDI12 finger_index0 0 1 dI12 finger_block1012 0 CZ3 0 4 T1 0 0 5 20 1 16 16 13
 255 6 137 0 1 0 17 0 0 18 0 50 255 7 132 0 19 20 0 0 +.5 555111512312578e-31 .0
4 1 0 0 0 0 -1 30 255 8 136 0 11 21 0 0 +.5 .3 .04 0 0 -1 29 255 9 361 0 12 22 0
 .115 .25 0 19 8 CCCCCCCA5 owner12 0 Z10 48 0 1 18 0 23 V0 16 255 11 120 24 ?25
 0 26 8 0 0 1 18 255 12 359 27 28 0 29 9 ?1 81 1 27 512 30 12 0 0 31 32 33 17 25
5 28 0 34 35 36 12 37 38 0 39 -18 29 355 40 35 12 41 22 ?1 81 1 40 514 30 29 0 0
 32 42 43 17 35 0 34 44 28 29 45 46 0 47 -18 41 348 31 36 29 48 49 ?1 29 22 357
 0 29 49 9 .085 .25 0 29 49 350 0 41 50 22 .115 .22 0 29 50 185 0 48 51 49 .115
 -.22 0 18 48 183 52 53 41 54 50 ?1 29 51 113 0 55 56 50 .5 -.3 0 18 55 92 57 58
 59 60 51 ?1 29 56 114 0 60 61 51 -.5 -.3 0 18 60 96 62 63 55 64 56 ?1 29 61 115
 0 64 65 56 -.5 .3 0 18 64 100 66 67 60 68 61 ?1 29 65 116 0 68 69 61 .5 .3 0 18
 68 104 70 25 64 71 65 ?1 29 69 44 0 54 72 65 .5 -.3 .04 18 54 42 73 74 48 75 69
 ?1 29 72 39 0 75 76 69 -.5 -.3 .04 18 75 37 77 78 54 79 72 ?1 29 76 34 0 79 80
 72 -.5 .3 .04 18 79 32 81 82 75 59 76 ?1 29 80 29 0 59 83 76 .5 .3 .04 18 59 27
 84 85 79 55 80 ?1 29 83 328 0 86 87 80 .115 -.22 -.0359065230605689 18 86 267 8
8 89 90 91 83 ?1 29 87 329 0 91 92 83 .085 -.22 -.03590652306056895 18 91 261 93
 94 86 95 87 ?1 29 92 330 0 95 96 87 .085 -.22 0 18 95 263 97 98 91 99 92 ?1 29
 96 331 0 71 100 92 .115 -.25 0 18 71 265 101 102 68 103 96 ?1 29 100 332 0 103
 104 96 .115 -.25 -.0359065230605689 18 103 271 105 106 71 107 100 ?1 29 104 333
 0 107 108 100 .085 -.25 -.03590652306056895 18 107 269 109 110 103 90 104 ?1 29
 108 334 0 90 111 104 .085 -.25 0 18 90 257 112 113 107 86 108 ?1 29 111 499 0 1
14 115 108 .115 .22 -.0359065230605689 18 114 434 116 117 118 119 111 ?1 29 115
 500 0 119 120 111 .085 .22 -.03590652306056895 18 119 438 121 122 114 123 115 ?
1 29 120 501 0 123 124 115 .085 .22 0 18 123 428 32 44 119 0 120 ?1 29 124 503 0
 99 125 120 .115 .25 -.0359065230605689 18 99 440 126 127 95 118 124 ?1 29 125 5
04 0 118 0 124 .085 .25 -.03590652306056895 18 118 432 128 129 99 114 125 ?1 81
 1 128 433 30 118 0 0 130 116 131 17 129 0 132 133 134 118 122 135 0 136 -15 255
 132 455 0 134 137 0 17 133 0 132 117 129 99 138 139 0 0 +17 134 0 132 129 117 1
19 140 141 0 0 -17 122 0 142 143 136 119 129 135 0 144 +16 135 405 145 ?122 146
 147 148 0 0 1 17 136 0 142 122 47 118 149 150 0 138 +15 142 459 0 143 151 0 17
 47 0 142 136 143 29 44 147 0 149 -17 149 0 152 45 138 29 136 150 0 0 -16 150 40
2 153 ?136 154 46 155 0 0 1 17 138 0 152 149 127 118 133 139 0 0 -15 152 468 0 4
5 156 157 17 127 0 152 138 45 99 39 154 0 158 +16 139 396 159 ?133 147 160 161 0
 0 1 81 1 159 398 30 139 0 0 162 163 164 16 147 383 165 ?44 135 139 166 0 0 1 16
 160 419 167 ?168 139 154 169 0 0 1 31 255 161 493 0 139 169 170 0 +.1 .25 -.052
 0 -1 0 0 0 -1 .022 31 169 494 0 160 171 161 0 +.1 .25 -.052 0 -1 0 0 0 -1 .02 3
0 170 492 0 172 161 173 0 +.1 .22 0 1 0 0 16 172 378 42 ?36 174 0 170 0 0 1 30 1
73 491 0 174 170 175 0 +.085 .22 -.01795326153028445 0 0 -1 16 174 422 176 ?144
 177 172 173 0 0 1 30 175 490 0 177 173 178 0 +.115 .22 -.01795326153028445 0 0
 -1 16 177 388 162 ?179 180 174 175 0 0 1 31 178 489 0 180 175 181 0 +.1 .22 -.0
52 0 -1 0 0 0 -1 .02 16 180 408 182 ?183 141 177 178 0 0 1 31 181 488 0 141 178
 184 0 +.1 .22 -.052 0 -1 0 0 0 -1 .022 16 141 425 130 ?140 46 180 181 0 0 1 30
 184 487 0 38 181 185 0 +.115 .25 0 0 -1 0 16 38 391 186 ?37 187 146 184 0 0 1 3
0 185 486 0 146 184 148 0 +.115 .25 -.0359065230605689 0 -1 0 16 146 399 163 ?11
7 38 135 185 0 0 1 30 148 485 0 135 185 166 0 +.085 .25 -.03590652306056895 0 -1
 0 30 166 484 0 147 148 188 0 +.085 .25 0 0 -1 0 30 188 326 0 189 166 190 0 +.1
 -.25 0 1 0 0 16 189 207 191 ?192 193 194 188 0 0 1 30 190 325 0 193 188 195 0 +
.085 -.25 -.01795326153028445 0 0 -1 16 193 240 196 ?110 197 189 190 0 0 1 30 19
5 324 0 197 190 198 0 +.115 -.25 -.01795326153028445 0 0 -1 16 197 231 199 ?200
 201 193 195 0 0 1 31 198 323 0 201 195 202 0 +.1 -.25 -.052 0 -1 0 0 0 -1 .02 1
6 201 237 203 ?204 205 197 198 0 0 1 31 202 322 0 205 198 206 0 +.1 -.25 -.052 0
 -1 0 0 0 -1 .022 16 205 243 207 ?106 208 201 202 0 0 1 30 206 321 0 187 202 209
 0 +.1 -.22 0 1 0 0 16 187 246 210 ?53 211 38 206 0 0 1 30 209 320 0 211 206 212
 0 +.085 -.22 -.01795326153028445 0 0 -1 16 211 217 213 ?94 214 187 209 0 0 1 30
 212 319 0 214 209 215 0 +.115 -.22 -.01795326153028445 0 0 -1 16 214 251 216 ?2
17 218 211 212 0 0 1 31 215 318 0 218 212 219 0 +.1 -.22 -.052 0 -1 0 0 0 -1 .02
 16 218 254 220 ?221 194 214 215 0 0 1 31 219 317 0 194 215 222 0 +.1 -.22 -.052
 0 -1 0 0 0 -1 .022 16 194 225 223 ?224 189 218 219 0 0 1 30 222 316 0 208 219 2
25 0 +.115 -.25 0 0 1 0 16 208 212 226 ?227 228 205 222 0 0 1 30 225 315 0 228 2
22 229 0 +.115 -.25 -.0359065230605689 0 1 0 16 228 234 230 ?89 231 208 225 0 0
 1 30 229 314 0 231 225 232 0 +.085 -.25 -.03590652306056895 0 1 0 16 231 228 23
3 ?234 235 228 229 0 0 1 30 232 313 0 235 229 236 0 +.085 -.25 0 0 1 0 16 235 22
0 237 ?98 238 231 232 0 0 1 30 236 9 0 239 232 240 0 +.5 555111512312578e-31 .04
 0 -1 0 16 239 7 241 ?242 243 244 236 0 0 1 30 240 14 0 243 236 245 0 +0 .3 .04
 -1 0 0 16 243 12 246 ?82 247 239 240 0 0 1 30 245 19 0 247 240 248 0 +-.5 55511
1512312578e-31 .04 0 -1 0 16 247 17 249 ?78 250 243 245 0 0 1 30 248 24 0 250 24
5 251 0 +0 -.3 .04 -1 0 0 16 250 22 252 ?253 254 247 248 0 0 1 30 251 112 0 238
 248 255 0 +.5 555111512312578e-31 0 0 -1 0 16 238 88 256 ?257 258 235 251 0 0 1
 30 255 111 0 258 251 259 0 +0 .3 0 -1 0 0 16 258 84 260 ?67 261 238 255 0 0 1 3
0 259 110 0 261 255 262 0 +-.5 555111512312578e-31 0 0 -1 0 16 261 80 263 ?264 2
44 258 259 0 0 1 30 262 109 0 244 259 265 0 +0 -.3 0 -1 0 0 16 244 76 266 ?267 2
39 261 262 0 0 1 30 265 133 0 254 262 268 0 +.5 -.3 .04 0 0 -1 16 254 117 269 ?5
8 270 250 265 0 0 1 30 268 134 0 270 265 21 0 +-.5 -.3 .04 0 0 -1 16 270 118 271
 ?63 26 254 268 0 0 1 30 21 135 0 26 268 8 0 +-.5 .3 .04 0 0 -1 16 26 119 272 ?2
73 11 270 21 0 0 1 81 1 272 161 30 26 0 0 24 269 274 17 273 0 275 264 276 64 277
 26 0 278 +15 275 123 0 264 279 0 17 264 0 275 280 273 60 278 261 0 267 +17 276
 0 275 273 280 79 78 247 0 0 -17 277 0 281 282 67 79 273 26 0 276 -17 278 0 283
 284 267 64 264 261 0 0 -15 283 75 0 257 17 34 17 284 0 283 257 278 68 67 258 0
 285 -17 267 0 283 278 257 60 286 244 0 0 +17 257 0 283 267 284 55 285 238 0 286
 +17 286 0 287 74 63 55 267 244 0 0 -15 287 121 0 286 288 0 17 74 0 287 253 286
 54 58 254 0 242 -17 63 0 287 286 253 60 280 270 0 264 +17 253 0 287 63 74 75 28
9 250 0 0 +17 280 0 275 276 264 75 63 270 0 253 -17 289 0 290 291 78 54 253 250
 0 0 -15 290 6 0 291 292 0 17 291 0 290 82 289 59 242 239 0 0 -17 78 0 290 289 8
2 75 276 247 0 280 +17 82 0 290 78 291 79 282 243 0 277 +17 282 0 281 25 277 59
 82 243 0 291 -15 281 125 0 67 293 0 17 25 0 281 67 282 68 85 11 0 284 +17 67 0
 281 277 25 64 284 258 0 273 +17 85 0 294 242 285 59 25 11 0 282 -15 294 127 0 2
85 19 0 17 242 0 294 58 85 54 291 239 0 289 +17 285 0 294 85 58 68 257 238 0 0 -
17 58 0 294 285 242 55 74 254 0 257 +14 255 19 128 295 ?293 17 294 6 7 +0 0 293
 17 23 81 1 295 524 296 19 297 0 298 299 300 14 293 126 299 ?279 19 281 6 20 -0
 0 279 19 23 14 17 68 298 ?19 0 301 6 302 -0 0 19 0 23 13 23 49 0 0 0 0 0 0 10 1
7 81 1 298 523 296 17 303 0 0 295 304 15 301 193 0 305 17 283 50 302 108 0 17 30
6 307 0 +0 0 0 0 0 1 1 0 0 50 306 3 0 292 308 302 0 +0 0 .04 0 0 1 1 0 0 50 307
 129 0 288 302 309 0 +0 -.3 .04 0 -1 0 0 0 -1 14 288 122 310 ?292 279 287 6 307
 +0 0 292 279 23 50 309 130 0 279 307 20 0 +-.5 555111512312578e-31 .04 1 0 0 0
 0 -1 14 279 124 311 ?288 293 275 6 309 -0 0 288 293 23 50 20 131 0 293 309 7 0
 +0 .3 .04 0 -1 0 0 0 -1 81 1 311 526 296 279 312 0 299 310 313 80 255 1 296 0 3
14 8001 0 0 0 0 3 5 0 0 0 FFFFTFTFFFFFFF2 81 1 312 177 30 279 0 311 297 213 315
 81 1 299 525 296 293 316 0 295 311 317 81 1 310 527 296 288 318 0 311 319 320 8
3 255 3 313 .76078431372549 .83921568627451 .925490196078431 81 1 318 175 30 288
 0 310 321 297 322 81 1 319 528 296 292 321 0 310 323 324 83 3 320 .760784313725
49 .83921568627451 .925490196078431 14 292 1 319 ?325 288 290 6 306 +0 0 325 288
 23 81 1 321 174 30 292 0 319 316 318 326 81 1 323 529 296 325 327 0 319 328 329
 83 3 324 .76078431372549 .83921568627451 .925490196078431 14 325 277 323 ?330 2
92 331 6 308 -0 0 330 292 23 81 1 327 279 30 325 0 323 105 332 333 81 1 328 530
 296 330 332 0 323 334 335 83 3 329 .76078431372549 .83921568627451 .92549019607
8431 14 330 281 328 ?336 325 337 6 338 -0 0 336 325 23 81 1 332 283 30 330 0 328
 327 339 340 81 1 334 531 296 336 339 0 328 341 342 83 3 335 .76078431372549 .83
921568627451 .925490196078431 14 336 285 334 ?343 330 344 6 345 +0 0 343 330 23
 81 1 339 287 30 336 0 334 332 346 347 81 1 341 532 296 343 346 0 334 348 349 83
 3 342 .76078431372549 .83921568627451 .925490196078431 14 343 289 341 ?350 336
 351 6 352 +0 0 350 336 23 81 1 346 291 30 343 0 341 339 353 354 81 1 348 533 29
6 350 353 0 341 355 356 83 3 349 .76078431372549 .83921568627451 .92549019607843
1 14 350 294 348 ?357 343 358 6 359 +0 0 357 343 23 81 1 353 296 30 350 0 348 34
6 360 361 81 1 355 534 296 357 360 0 348 362 363 83 3 356 .76078431372549 .83921
568627451 .925490196078431 14 357 299 355 ?364 350 365 6 366 -0 0 364 350 23 81
 1 360 301 30 357 0 355 353 52 367 81 1 362 535 296 364 368 0 355 369 370 83 3 3
63 .76078431372549 .83921568627451 .925490196078431 14 364 448 362 ?137 357 371
 6 372 -0 0 137 357 23 81 1 368 450 30 364 0 362 126 373 374 81 1 369 536 296 13
7 373 0 362 375 376 83 3 370 .76078431372549 .83921568627451 .925490196078431 14
 137 452 369 ?151 364 132 6 377 +0 0 151 364 23 81 1 373 454 30 137 0 369 368 37
8 379 81 1 375 537 296 151 378 0 369 380 381 83 3 376 .76078431372549 .839215686
27451 .925490196078431 14 151 456 375 ?382 137 142 6 383 +0 0 382 137 23 81 1 37
8 458 30 151 0 375 373 384 385 81 1 380 538 296 382 384 0 375 386 387 83 3 381 .
76078431372549 .83921568627451 .925490196078431 14 382 460 380 ?156 151 388 6 38
9 -0 0 156 151 23 81 1 384 462 30 382 0 380 378 390 391 81 1 386 539 296 156 390
 0 380 392 393 83 3 387 .76078431372549 .83921568627451 .925490196078431 14 156
 465 386 ?394 382 152 6 395 +0 0 394 382 23 81 1 390 467 30 156 0 386 384 396 39
7 81 1 392 540 296 394 396 0 386 0 398 83 3 393 .76078431372549 .83921568627451
 .925490196078431 14 394 470 392 ?0 156 399 6 400 -0 0 0 156 23 81 1 396 472 30
 394 0 392 390 401 402 83 3 398 .76078431372549 .83921568627451 .925490196078431
 80 1 30 403 404 9000 0 0 0 0 3 6 0 0 0 FFTFTFTTFFFFFF1 81 1 401 510 30 1 0 405
 396 31 406 82 255 3 402 11 1 2 81 1 405 520 407 1 401 14 0 0 408 81 1 31 511 30
 41 0 0 401 27 409 82 3 406 6 0 3 82 3 409 12 0 0 80 1 407 410 411 8038 0 0 0 0
 0 0 0 0 0 TTTTTTTTTTTTTF10 81 1 14 521 410 1 405 2 0 0 412 98 255 8 408 80 108
 97 116 102 111 114 109 80 1 410 413 414 8017 0 0 0 0 0 0 0 0 0 TTTTTTTTTTTTTF3
 84 255 8 412 Platform79 255 13 414 SDL/TYSA_NAME79 14 411 SDL/TYSA_UNAME79 9 40
4 BTI/DetId15 399 473 0 415 394 416 50 400 482 0 394 395 377 0 +0 .22 -.017 0 1
 0 1 0 0 50 395 483 0 156 0 400 0 +0 .25 -.017 0 1 0 1 0 0 51 255 377 481 0 137
 400 389 0 +.1 .25 -.052 0 -1 0 .022 0 0 -1 51 389 480 0 382 377 372 0 +.1 .25 -
.052 0 -1 0 .02 0 0 -1 50 372 479 0 364 389 383 0 +.115 .25 -.01795326153028445
 -1 0 0 0 0 1 50 383 478 0 151 372 359 0 +.085 .25 -.01795326153028445 -1 0 0 0
 0 1 50 359 312 0 350 383 366 0 +0 -.25 -.017 0 -1 0 1 0 0 50 366 311 0 357 359
 338 0 +0 -.22 -.017 0 -1 0 1 0 0 51 338 310 0 330 366 352 0 -.1 -.25 -.052 0 1
 0 .022 0 0 1 51 352 309 0 343 338 345 0 -.1 -.25 -.052 0 1 0 .02 0 0 1 50 345 3
08 0 336 352 308 0 +.115 -.25 -.01795326153028445 1 0 0 0 0 -1 50 308 307 0 325
 345 306 0 +.085 -.25 -.01795326153028445 1 0 0 0 0 -1 17 415 0 399 144 417 123
 36 172 0 143 -15 416 474 0 418 394 0 17 418 0 416 418 418 0 183 180 0 0 -17 183
 0 419 183 183 0 418 180 0 0 +15 419 464 0 183 382 0 17 144 0 399 140 415 119 14
3 174 0 134 +17 417 0 399 415 140 41 179 177 0 37 -17 36 0 34 28 44 41 415 172 0
 417 +17 143 0 142 47 122 123 144 174 0 0 -15 34 364 0 35 17 0 17 44 0 34 36 35
 123 47 147 0 415 +17 140 0 399 417 144 114 134 141 0 0 +17 179 0 371 158 37 114
 417 177 0 140 +17 37 0 371 179 39 41 28 38 0 0 +15 371 451 0 179 364 0 17 39 0
 371 37 158 12 127 154 0 45 -17 158 0 371 39 179 99 117 146 0 133 -16 154 416 42
0 ?127 160 150 171 0 0 1 17 45 0 152 127 149 12 35 46 0 0 +16 46 411 421 ?45 150
 141 422 0 0 1 81 1 421 516 30 46 0 0 42 165 423 30 422 497 0 46 0 155 0 +.1 .25
 0 1 0 0 30 155 496 0 150 422 171 0 +.085 .25 -.01795326153028445 0 0 -1 30 171
 495 0 154 155 169 0 +.115 .25 -.01795326153028445 0 0 -1 81 1 42 515 30 172 0 0
 40 421 424 81 1 165 517 30 147 0 0 421 186 425 82 3 423 12 1 1 81 1 186 518 30
 38 0 0 165 303 426 82 3 425 12 2 1 81 1 303 519 30 17 0 298 186 0 427 82 3 426
 12 3 1 82 3 427 12 0 2 82 3 424 12 0 1 81 1 420 418 30 154 0 0 182 167 428 81 1
 182 410 30 180 0 0 145 420 429 81 1 167 421 30 160 0 0 420 176 430 82 3 428 11
 13 1 81 1 176 424 30 174 0 0 167 130 431 82 3 430 11 9 1 81 1 130 427 30 141 0
 0 176 128 432 82 3 431 11 10 1 82 3 432 11 6 1 81 1 145 407 30 135 0 0 153 182
 433 82 3 429 11 8 1 81 1 153 404 30 150 0 0 163 145 434 82 3 433 11 2 1 81 1 16
3 401 30 146 0 0 159 153 435 82 3 434 11 11 1 82 3 435 11 3 1 17 117 0 132 134 1
33 114 158 146 0 179 +82 3 397 11 2 2 82 3 391 11 4 2 15 388 463 0 436 382 419 1
7 436 0 388 436 436 0 168 160 0 0 -17 168 0 157 168 168 0 436 160 0 0 +15 157 46
9 0 168 156 0 82 3 385 11 5 2 82 3 379 11 3 2 81 1 126 441 30 99 0 0 121 368 437
 82 3 374 11 6 2 81 1 121 439 30 119 0 0 116 126 438 82 3 437 11 7 0 81 1 116 43
5 30 114 0 0 128 121 439 82 3 438 11 4 0 82 3 439 11 6 0 81 1 52 338 30 48 0 0 3
60 101 440 82 3 367 9 1 2 81 1 101 339 30 71 0 0 52 97 441 82 3 440 10 0 0 81 1
 97 340 30 95 0 0 101 112 442 82 3 441 10 1 0 81 1 112 341 30 90 0 0 97 210 443
 82 3 442 10 2 0 81 1 210 342 30 187 0 0 112 191 444 82 3 443 10 3 0 81 1 191 34
3 30 189 0 0 210 237 445 82 3 444 10 0 1 81 1 237 344 30 235 0 0 191 226 446 82
 3 445 10 1 1 81 1 226 345 30 208 0 0 237 162 447 82 3 446 10 2 1 81 1 162 390 3
0 177 0 0 226 159 448 82 3 447 10 3 1 82 3 448 11 12 1 15 365 302 0 53 357 449 1
7 53 0 365 217 450 48 305 187 0 451 +15 449 303 0 221 357 0 17 221 0 449 221 221
 0 452 218 0 0 +17 452 0 453 452 452 0 221 218 0 0 -15 453 293 0 452 343 0 17 21
7 0 365 454 53 86 451 214 0 0 +17 450 0 365 53 454 95 94 211 0 305 -17 305 0 301
 455 227 95 53 187 0 0 -17 451 0 344 102 89 48 217 214 0 227 -15 344 288 0 451 3
36 0 17 102 0 344 200 451 71 227 208 0 456 -17 89 0 344 451 200 86 457 228 0 224
 +17 227 0 301 305 192 48 102 208 0 0 +17 192 0 301 227 455 71 458 189 0 0 +17 4
55 0 301 192 305 90 98 235 0 0 -17 458 0 358 110 456 90 192 189 0 455 -15 358 29
7 0 458 350 459 17 110 0 358 106 458 107 113 193 0 460 +17 456 0 358 458 106 71
 200 197 0 192 -17 106 0 358 456 110 103 461 205 0 457 +17 200 0 344 89 102 103
 456 197 0 0 +17 461 0 337 234 457 107 106 205 0 0 -17 457 0 337 461 224 103 89
 228 0 200 -15 337 284 0 224 330 0 17 224 0 337 457 234 86 454 194 0 217 +17 234
 0 337 224 461 91 460 231 0 454 +17 454 0 365 450 217 91 224 194 0 0 -17 460 0 3
31 113 94 107 234 231 0 461 -15 331 280 0 94 325 0 17 113 0 331 98 460 90 110 19
3 0 458 -17 94 0 331 460 98 91 450 211 0 234 +17 98 0 331 94 113 95 455 235 0 45
0 +15 459 298 0 462 350 0 17 462 0 459 462 462 0 204 201 0 0 -17 204 0 351 204 2
04 0 462 201 0 0 +15 351 292 0 204 343 453 82 3 361 9 2 2 82 3 354 9 4 2 82 3 34
7 9 6 2 82 3 340 9 3 2 81 1 105 272 30 103 0 0 109 327 463 82 3 333 9 5 2 81 1 1
09 270 30 107 0 0 88 105 464 82 3 463 9 7 0 81 1 88 268 30 86 0 0 93 109 465 82
 3 464 9 5 0 81 1 93 262 30 91 0 0 220 88 466 82 3 465 9 6 0 81 1 220 256 30 218
 0 0 216 93 467 82 3 466 9 4 0 81 1 216 253 30 214 0 0 207 220 468 82 3 467 9 8
 1 81 1 207 245 30 205 0 0 196 216 469 82 3 468 9 12 1 81 1 196 242 30 193 0 0 2
03 207 470 82 3 469 9 7 1 81 1 203 239 30 201 0 0 230 196 471 82 3 470 9 11 1 81
 1 230 236 30 228 0 0 199 203 472 82 3 471 9 9 1 81 1 199 233 30 197 0 0 233 230
 473 82 3 472 9 3 1 81 1 233 230 30 231 0 0 223 199 474 82 3 473 9 13 1 81 1 223
 227 30 194 0 0 213 233 475 82 3 474 9 2 1 81 1 213 219 30 211 0 0 312 223 476 8
2 3 475 9 6 1 82 3 476 9 10 1 81 1 316 172 30 293 0 299 249 321 477 82 3 326 6 2
 2 81 1 249 171 30 247 0 0 263 316 478 82 3 477 6 0 2 81 1 263 170 30 261 0 0 24
1 249 479 82 3 478 6 11 1 81 1 241 169 30 239 0 0 256 263 480 82 3 479 6 10 1 81
 1 256 168 30 238 0 0 252 241 481 82 3 480 6 9 1 81 1 252 167 30 250 0 0 266 256
 482 82 3 481 6 8 1 81 1 266 166 30 244 0 0 246 252 483 82 3 482 6 7 1 81 1 246
 165 30 243 0 0 260 266 484 82 3 483 6 6 1 81 1 260 164 30 258 0 0 271 246 485 8
2 3 484 6 5 1 81 1 271 163 30 270 0 0 269 260 486 82 3 485 6 4 1 81 1 269 162 30
 254 0 0 272 271 487 82 3 486 6 3 1 82 3 487 6 2 1 81 1 297 176 30 19 0 295 318
 312 488 82 3 322 6 3 2 82 3 488 6 4 2 83 3 317 .76078431372549 .83921568627451
 .925490196078431 82 3 315 6 5 2 79 15 314 SDL/TYSA_COLOUR83 3 304 .760784313725
49 .83921568627451 .925490196078431 83 3 300 .76078431372549 .83921568627451 .92
5490196078431 81 1 24 160 30 11 0 0 77 272 489 82 3 274 6 1 1 81 1 77 159 30 75
 0 0 62 24 490 82 3 489 6 0 1 81 1 62 158 30 60 0 0 73 77 491 82 3 490 6 7 0 81
 1 73 157 30 54 0 0 57 62 492 82 3 491 6 6 0 81 1 57 156 30 55 0 0 81 73 493 82
 3 492 6 5 0 81 1 81 155 30 79 0 0 66 57 494 82 3 493 6 4 0 81 1 66 154 30 64 0
 0 84 81 495 82 3 494 6 3 0 81 1 84 153 30 59 0 0 70 66 496 82 3 495 6 2 0 81 1
 70 152 30 68 0 0 0 84 497 82 3 496 6 1 0 82 3 497 6 0 0 82 3 164 11 7 1 82 3 13
1 11 5 0 81 1 32 513 30 123 0 0 27 40 498 82 3 498 12 2 0 82 3 43 12 3 0 82 3 33
 12 1 0 19 18 138 0 1 0 10 6 S0 74 4 CI16 index_map_offset0 0 1 dCCZ20 16 5 0 0
 303 405 14 2 392 0 0 0 0 0 0 0 0 0 0 0 0 0 0 0 80 1 13 296 499 8040 0 0 0 0 3 5
 0 0 0 TTTFFFFFFFFFFF2 83 3 15 .76078431372549 .83921568627451 .925490196078431
 79 17 499 SDL/TYSA_COLOUR_21 0 
