**ABCDEFGHIJKLMNOPQRSTUVWXYZabcdefghijklmnopqrstuvwxyz**************************
**PARASOLID !"#$%&'()*+,-./:;<=>?@[\]^_`{|}~0123456789**************************
**PART1;
MC=unknown;
MC_MODEL=unknown;
MC_ID=unknown;
OS=unknown;
OS_RELEASE=unknown;
FRU=Parasolid 33.1.200;
APPL=Onshape;
SITE=unknown;
USER=unknown;
FORMAT=text;
GUISE=transmit;
KEY=BTGapi::writeModels_.xmt;
FILE=BTGapi::writeModels_.xmt;
DATE=2021-06-27T09:38:08 (UTC);
**PART2;
SCH=SCH_3301200_33103;
USFLD_SIZE=0;
**PART3;
**END_OF_HEADER*****************************************************************
T51 : TRANSMIT FILE created by modeller version 330120023 SCH_3301200_33103_1300
6230 0 12 35 CCCI7 lattice222 0 CCCI4 mesh1006 0 I8 polyline1008 0 CCCCCCCDI5 ow
ner1040 0 CCCCCCI13 boundary_mesh1006 0 I17 boundary_polyline1008 0 CCCA16 index
_map_offset0 0 1 dA9 index_map82 0 A17 node_id_index_map82 0 A20 schema_embeddin
g_map82 0 A5 child12 0 A14 lowest_node_id0 0 1 dA16 mesh_offset_data206 0 Z1 159
9 2 3 0 0 0 0 0 0 0 1e3 1e-8 0 4 0 1 0 1 1 5 6 7 8 0 0 9 10 11 0 0 0 0 0 0 0 81
 255 1 2 1563 12 1 13 0 0 0 14 70 11 CI9 list_type0 0 1 uI10 notransmit0 0 1 lCC
CDCCDI12 finger_index0 0 1 dI12 finger_block1012 0 CZ3 0 4 T1 0 0 5 20 1 15 15 1
3 255 5 49 0 1 16 17 0 0 18 0 51 255 6 82 0 19 20 0 21 --.06 0 0 1 0 0 .019 0 0
 -1 31 255 7 86 0 22 23 0 0 +-.12 0 0 1 0 0 0 0 -1 .019 29 255 8 1312 0 11 24 0
 .1037260584472084 .02 -.080055635648006 19 8 CCCCCCCA5 owner12 0 Z9 57 0 1 25 0
 26 V0 16 255 10 66 27 ?28 0 29 23 0 0 1 18 255 11 1310 30 31 0 32 8 ?1 81 1 30
 1529 33 11 0 0 34 35 36 17 255 31 0 37 38 39 11 40 41 0 42 -18 32 841 43 44 11
 45 24 ?1 81 1 43 1076 33 32 0 0 46 47 48 17 44 0 49 50 51 32 52 53 0 54 -18 45
 730 55 56 32 57 58 ?1 29 24 843 0 32 59 8 -.128 -.02 .028 29 59 802 0 60 61 24
 -.32 .028 -.028 18 60 722 62 63 64 65 59 ?1 29 61 803 0 65 66 59 -.32 .028 .028
 18 65 736 67 68 60 69 61 ?1 29 66 804 0 69 70 61 -.12 .028 .028 18 69 728 71 72
 65 73 66 ?1 29 70 805 0 73 58 66 -.12 .028 -.028 18 73 726 74 75 69 76 70 ?1 29
 58 806 0 45 77 70 -.32 -.028 -.028 29 77 807 0 57 78 58 -.32 -.028 .028 18 57 7
24 79 80 45 81 77 ?1 29 78 808 0 81 82 77 -.12 -.028 .028 18 81 734 83 84 57 64
 78 ?1 29 82 809 0 64 85 78 -.12 -.028 -.028 18 64 732 86 87 81 60 82 ?1 29 85 1
062 0 88 89 82 -.128 -.02 -.028 18 88 1006 90 51 91 92 85 ?1 29 89 1063 0 92 93
 85 -.32 -.02 -.028 18 92 1002 94 95 88 96 89 ?1 29 93 1064 0 96 97 89 -.32 -.02
 .028 18 96 998 98 99 92 100 93 ?1 29 97 1066 0 76 101 93 -.128 .02 -.028 18 76
 992 102 103 73 104 97 ?1 29 101 1067 0 104 105 97 -.32 .02 -.028 18 104 1004 10
6 107 76 108 101 ?1 29 105 1068 0 108 109 101 -.32 .02 .028 18 108 1000 110 111
 104 91 105 ?1 29 109 1069 0 91 112 105 -.128 .02 .028 18 91 996 47 50 108 88 10
9 ?1 29 112 1248 0 113 114 109 .227141279507024 .028 -.2271361687268495 18 113 1
178 115 116 117 118 112 ?1 29 114 1249 0 118 119 112 .1842427906923615 .028 -.26
3132274869296 18 118 1172 120 121 113 122 114 ?1 29 119 1250 0 122 123 114 .0985
837575697161 .028 -.0739272801030542 18 122 1170 124 125 118 126 119 ?1 29 123 1
251 0 126 127 119 .0556852687550534 .028 -.1099233862455004 18 126 1174 128 129
 122 130 123 ?1 29 127 1252 0 100 131 123 .227141279507024 -.028 -.2271361687268
495 18 100 1182 132 133 96 134 127 ?1 29 131 1253 0 134 135 127 .184242790692361
5 -.028 -.263132274869296 18 134 1180 136 137 100 138 131 ?1 29 135 1254 0 138 1
39 131 .0985837575697161 -.028 -.0739272801030542 18 138 1176 140 141 134 117 13
5 ?1 29 139 1255 0 117 142 135 .0556852687550534 -.028 -.1099233862455004 18 117
 1168 143 144 138 113 139 ?1 29 142 1514 0 145 146 139 .227141279507024 -.02 -.2
271361687268495 18 145 1458 147 148 149 150 142 ?1 29 146 1515 0 150 151 142 .18
42427906923615 -.02 -.263132274869296 18 150 1454 35 152 145 153 146 ?1 29 151 1
516 0 153 154 146 .0608275696325456 -.02 -.1160517417904522 18 153 1450 155 156
 150 157 151 ?1 29 154 1517 0 157 158 151 .1037260584472084 -.02 -.0800556356480
06 18 157 1446 34 159 153 0 154 ?1 29 158 1518 0 130 160 154 .227141279507024 .0
2 -.2271361687268495 18 130 1444 161 39 126 162 158 ?1 29 160 1519 0 162 163 158
 .1842427906923615 .02 -.263132274869296 18 162 1456 164 165 130 149 160 ?1 29 1
63 1520 0 149 0 160 .0608275696325456 .02 -.1160517417904522 18 149 1452 166 167
 162 145 163 ?1 81 1 166 1535 33 149 0 0 155 168 169 17 167 0 170 42 171 149 172
 173 0 38 -15 255 170 1467 0 171 174 0 17 42 0 170 159 167 11 38 175 0 176 +17 1
71 0 170 167 159 153 177 178 0 172 -17 172 0 179 180 181 153 167 173 0 0 +16 173
 1391 182 ?172 183 184 185 0 0 1 17 38 0 37 165 31 149 42 175 0 181 -15 37 1484
 0 31 186 187 17 165 0 37 39 38 162 181 188 0 189 +16 175 1426 190 ?42 188 41 19
1 0 0 1 17 181 0 179 172 192 149 165 188 0 0 -15 179 1341 0 172 193 0 17 192 0 1
79 181 194 162 121 195 0 0 -16 188 1396 196 ?165 197 175 198 0 0 1 81 1 196 1542
 33 188 0 0 199 182 200 16 197 1406 201 ?39 184 188 202 0 0 1 30 255 198 1511 0
 188 191 202 0 +.1225351801624534 .02 -.189592008329874 .64278760968654 0 -.7660
44443118978 30 191 1512 0 175 203 198 0 +.0822768140398771 .02 -.098053688719229
1 .766044443118978 0 .64278760968654 31 202 1510 0 197 198 204 0 +.2056920350996
925 .02 -.245134221798073 0 -1 0 0 0 -1 .028 31 204 1509 0 184 202 205 0 +.20569
2035099693 .02 -.245134221798073 0 -1 0 0 0 -1 .02 16 184 1429 206 ?207 173 197
 204 0 0 1 30 205 1508 0 208 204 209 0 +.165433668977116 -.02 -.153595902187428
 .642787609686539 0 -.766044443118978 16 208 1378 168 ?148 178 0 205 0 0 1 30 20
9 1507 0 178 205 210 0 +.0822768140398771 -.02 -.0980536887192291 .7660444431189
78 0 .64278760968654 16 178 1388 211 ?177 212 208 209 0 0 1 30 210 1506 0 212 20
9 213 0 +.1225351801624534 -.02 -.189592008329874 .64278760968654 0 -.7660444431
18978 16 212 1434 199 ?180 214 178 210 0 0 1 31 213 1505 0 214 210 215 0 +.20569
20350996925 -.02 -.245134221798073 0 -1 0 0 0 -1 .028 16 214 1439 216 ?217 218 2
12 213 0 0 1 31 215 1504 0 218 213 185 0 +.205692035099693 -.02 -.24513422179807
3 0 -1 0 0 0 -1 .02 16 218 1416 219 ?220 41 214 215 0 0 1 30 185 1501 0 173 215
 221 0 +.0608275696325456 .02 -.1160517417904522 0 -1 0 30 221 1500 0 183 185 22
2 0 +.1037260584472084 .02 -.080055635648006 0 -1 0 16 183 1383 223 ?159 224 173
 221 0 0 1 30 222 1247 0 225 221 226 0 +.0913063353600859 -.028 -.08003376239507
63 .766044443118977 0 .642787609686541 16 225 1126 227 ?228 229 230 222 0 0 1 30
 226 1246 0 229 222 231 0 +.0582564191937995 -.028 -.1129875640179764 .642787609
686539 0 -.766044443118978 16 229 1153 232 ?137 233 225 226 0 0 1 30 231 1245 0
 233 226 234 0 +.1011549080084622 -.028 -.0769914578755301 .642787609686539 0 -.
766044443118979 16 233 1144 235 ?236 237 229 231 0 0 1 31 234 1244 0 237 231 238
 0 +.2056920350996925 -.028 -.245134221798073 0 -1 0 0 0 -1 .028 16 237 1156 239
 ?133 240 233 234 0 0 1 31 238 1243 0 240 234 241 0 +.205692035099693 -.028 -.24
5134221798073 0 -1 0 0 0 -1 .02 16 240 1150 242 ?243 244 237 238 0 0 1 30 241 12
42 0 224 238 245 0 +.0913063353600859 .028 -.0800337623950763 .766044443118977 0
 .642787609686541 16 224 1159 246 ?247 248 183 241 0 0 1 30 245 1241 0 248 241 2
49 0 +.0582564191937995 .028 -.1129875640179764 .642787609686539 0 -.76604444311
8978 16 248 1132 250 ?194 251 224 245 0 0 1 30 249 1240 0 251 245 252 0 +.101154
9080084622 .028 -.0769914578755301 .642787609686539 0 -.766044443118979 16 251 1
162 253 ?254 255 248 249 0 0 1 31 252 1239 0 255 249 256 0 +.2056920350996925 .0
28 -.245134221798073 0 -1 0 0 0 -1 .028 16 255 1138 257 ?258 230 251 252 0 0 1 3
1 256 1238 0 230 252 259 0 +.205692035099693 .028 -.245134221798073 0 -1 0 0 0 -
1 .02 16 230 1165 260 ?261 225 255 256 0 0 1 30 259 1237 0 262 256 263 0 +.22714
1279507024 -.028 -.2271361687268495 0 1 0 16 262 1147 264 ?265 195 266 259 266 2
66 1 30 263 1236 0 267 259 268 0 +.1842427906923615 -.028 -.263132274869296 0 1
 0 16 267 1141 269 ?270 271 195 263 195 195 1 30 268 1235 0 244 263 272 0 +.0985
837575697161 -.028 -.0739272801030542 0 1 0 16 244 1129 273 ?125 266 240 268 0 0
 1 30 272 1234 0 271 268 274 0 +.0556852687550534 -.028 -.1099233862455004 0 1 0
 16 271 1135 275 ?129 276 267 272 0 0 1 31 274 1061 0 277 272 278 0 +-.32 .02 12
24646799147352e-33 0 -1 0 0 0 -1 .02 16 277 969 279 ?280 281 282 274 0 0 1 30 27
8 1060 0 281 274 283 0 +-.128 .02 0 0 0 -1 16 281 974 284 ?285 286 277 278 0 0 1
 30 283 1059 0 286 278 287 0 +-.224 .02 .028 -1 0 0 16 286 934 288 ?111 289 281
 283 0 0 1 31 287 1058 0 289 283 290 0 +-.32 .02 0 0 -1 0 0 0 -1 .028 16 289 944
 291 ?107 292 286 287 0 0 1 30 290 1057 0 292 287 293 0 +-.224 .02 -.028 1 0 0 1
6 292 959 294 ?103 295 289 290 0 0 1 31 293 1056 0 296 290 297 0 +-.32 -.02 1224
646799147352e-33 0 -1 0 0 0 -1 .02 16 296 954 298 ?299 53 276 293 0 0 1 30 297 1
055 0 53 293 300 0 +-.128 -.02 0 0 0 -1 16 53 926 301 ?52 302 296 297 0 0 1 30 3
00 1054 0 302 297 303 0 +-.224 -.02 .028 -1 0 0 16 302 977 304 ?305 306 53 300 0
 0 1 31 303 1053 0 306 300 307 0 +-.32 -.02 0 0 -1 0 0 0 -1 .028 16 306 982 308
 ?309 282 302 303 0 0 1 30 307 1052 0 282 303 310 0 +-.224 -.02 -.028 1 0 0 16 2
82 987 311 ?312 277 306 307 0 0 1 30 310 1051 0 295 307 313 0 +-.128 .02 -.028 0
 -1 0 16 295 964 314 ?51 315 292 310 0 0 1 30 313 1048 0 315 310 316 0 +-.128 .0
2 .028 0 -1 0 16 315 929 317 ?318 319 295 313 0 0 1 30 316 801 0 320 313 321 0 +
-.124 -.028 -.028 1 0 0 16 320 713 322 ?87 323 324 316 0 0 1 30 321 800 0 323 31
6 325 0 +-.12 -.028 -.014 0 0 1 16 323 716 326 ?84 327 320 321 0 0 1 30 325 799
 0 327 321 328 0 +-.124 -.028 .028 -1 0 0 16 327 707 329 ?330 331 323 325 0 0 1
 31 328 798 0 331 325 332 0 +-.32 -.028 1224646799147352e-33 0 -1 0 0 0 -1 .02 1
6 331 704 333 ?334 335 327 328 0 0 1 31 332 797 0 335 328 336 0 +-.32 -.028 0 0
 -1 0 0 0 -1 .028 16 335 710 337 ?56 338 331 332 0 0 1 30 336 796 0 319 332 339
 0 +-.124 .028 -.028 1 0 0 16 319 692 340 ?75 341 315 336 0 0 1 30 339 795 0 341
 336 342 0 +-.12 .028 -.014 0 0 1 16 341 698 343 ?72 344 319 339 0 0 1 30 342 79
4 0 344 339 345 0 +-.124 .028 .028 -1 0 0 16 344 680 346 ?347 348 341 342 0 0 1
 31 345 793 0 348 342 349 0 +-.32 .028 1224646799147352e-33 0 -1 0 0 0 -1 .02 16
 348 719 350 ?351 324 344 345 0 0 1 31 349 792 0 324 345 352 0 +-.32 .028 0 0 -1
 0 0 0 -1 .028 16 324 686 353 ?354 320 348 349 0 0 1 30 352 791 0 355 349 356 0
 +-.32 -.028 -.028 0 1 0 16 355 695 357 ?358 359 360 352 360 360 1 30 356 790 0
 361 352 362 0 +-.32 -.028 .028 0 1 0 16 361 689 363 ?364 22 359 356 359 359 1 3
0 362 789 0 338 356 365 0 +-.12 -.028 .028 0 1 0 16 338 683 366 ?367 368 335 362
 0 0 1 30 365 788 0 368 362 369 0 +-.12 -.028 -.028 0 1 0 16 368 701 370 ?371 36
0 338 365 0 0 1 31 369 591 0 372 365 373 0 +867361737988404e-33 -.02 0 0 -1 0 0
 0 -1 .02 16 372 442 374 ?375 376 377 369 0 0 1 31 373 590 0 376 369 378 0 +-312
2502256758255e-32 -.02 910729824887824e-32 0 -1 0 0 0 -1 .022 16 376 469 379 ?38
0 381 372 373 0 0 1 31 378 589 0 382 373 383 0 +867361737988404e-33 .02 0 0 -1 0
 0 0 -1 .02 16 382 466 384 ?385 377 22 378 0 0 1 31 383 588 0 377 378 386 0 +-31
22502256758255e-32 .02 910729824887824e-32 0 -1 0 0 0 -1 .022 16 377 424 387 ?38
8 372 382 383 0 0 1 38 12 CCCCCCCCCCCA17 intersection_data204 0 Z386 587 0 381 3
83 389 0 +390 391 392 393 393 394 16 381 427 395 ?396 397 376 386 0 0 1 31 389 5
86 0 397 386 398 0 +.0771345131623848 0 -.0919253331742774 -.64278760968654 0 .7
66044443118978 .766044443118978 0 .64278760968654 .018 51 390 571 0 399 400 401
 402 -.0385672565811924 0 -.0459626665871387 -.64278760968654 0 .766044443118978
 .019 .766044443118978 0 .64278760968654 51 391 574 0 403 404 400 405 --31225022
56758255e-32 -.02 910729824887824e-32 0 1 0 .022 0 0 1 40 255 24 392 0 1 24 .001
432745720279024 .3820539457136585 ??.0216837038703568 0 .00371712072210125 .0217
9095542753115 .00369292036623609 .00302560102382171 .0219975164241217 .008356736
56033993 .0003305619011567275 .0212705615077451 .01414719088697016 -.00561811473
229525 .0191664500769421 .0173519998460547 -.01080033293227976 .0161931686201572
5 .01878774304769185 -.01489232319146864 .01218056426967152 .01884199874926515 -
.0183203126084792 .00799971980661142 .01764555994261865 -.0204940109060113 .0035
0079459416674 .01528972453839425 -.02171967857058325 -.00255580933183733 .010241
5779211026 -.0218510374732939 -.00621414022701632 .00501653937763287 -.021104133
7476566 -.00731342589895085 .001515064529815665 -.02074882651189115 -.0071889643
6172589 -.00220100696856481 -.0207922772058723 -.00559135961761997 -.00619925045
259755 -.02127761024237565 -.000916537838142996 -.01187588854929674 -.0219808998
5399285 .00540998017613297 -.01641806132887945 -.02132444875005805 .010242649127
07854 -.01841742801622295 -.01947018589689265 .01479026177619962 -.0189804690304
0565 -.01628644088165025 .01800655904585 -.0181345223094961 -.01263977180681352
 .02025023429168445 -.0161642743823391 -.00859813998094286 .0218170739361389 -.0
1179820018931044 -.00283112784328945 .0219130034178194 -.00595491933573714 .0019
54553967183875 .02172519688125195 -.00221356720832906 .003466384351286195 .02168
37038703568 3210404744881035e-33 .00371712072210124 41 3 CI8 term_use0 0 1 cCZ1
 393 H?.0216837038703568 3210404744881035e-33 .00371712072210124 204 2 17 INTERS
ECTION_DATA17 Intersection data7 uv_type0 0 1 u6 values0 1 1 fT96 394 4 0 .04890
94634935907 1.40102189028741 .02 .1956092780809695 .0483107886993451 1.432831749
086056 .0236929203662361 .455407412414353 .0461134941061864 1.555770220397525 .0
2835673656033995 .839918911631286 .0420238210402664 1.82902551140727 .0341471908
8697015 1.151223766230862 .03940650834225825 2.083946623656245 .0373519998460547
 1.421181616093942 .03818305042344165 2.31437154313007 .03878774304769185 1.6998
49854479545 .03813631053853655 2.554837273686025 .03884199874926515 1.9506640781
3469 .03915855605557655 2.7694377916304 .03764555994261865 2.206385042391605 .04
11114935354864 2.981786303647725 .03528972453839425 2.572307101225675 .044903976
73842495 3.258028720988955 .0302415779211026 2.874396228261125 .0478276679585488
 3.427951182363 .02501653937763285 3.06176766767105 .0488064563015323 3.48046995
191971 .02151506452981565 3.257695793745435 .0486931688048477 3.474477758469255
 .0177989930314352 3.47395429940969 .0472944615944845 3.398564199622255 .0138007
4954740244 3.81678409607249 .04375079297826125 3.183265525081275 .00812411145070
326 4.18496901515173 .04018705630657455 2.893136111285385 .00358193867112055 4.4
64116279134215 .0385011243379392 2.65730848682894 .00158257198377707 4.757734805
51779 .03801686545066455 2.404302062033785 .001019530969594346 5.0153792217602 .
03874297999733715 2.182832335552845 .00186547769050392 5.2657721950504 .04039684
29504954 1.97232354048828 .003835725617660895 5.61322113412684 .0438074854421235
 1.699841818079905 .00820179981068956 5.96439630612919 .0474118681173443 1.48183
567199695 .01404508066426286 6.16641659516895 .048690717096748 1.41257406405884
 .01778643279167095 168968670783212e-30 .0489094634935907 1.40102189028741 .02 1
4 255 403 564 406 ?407 408 409 16 391 -410 411 407 408 412 50 255 404 575 0 413
 414 391 0 +-.0571539824501536 .02 -.1225671108990364 0 -1 0 1 0 0 51 400 572 0
 407 391 390 415 -.0385672565811924 0 -.0459626665871387 -.64278760968654 0 .766
044443118978 .018 .766044443118978 0 .64278760968654 141 255 405 416 417 418 391
 38 416 584 0 419 398 420 0 +400 391 421 422 422 423 141 417 424 425 405 391 141
 418 386 405 425 391 141 425 420 418 417 391 38 420 579 0 426 416 424 0 +20 391
 427 428 428 429 16 426 415 430 ?431 29 419 420 0 0 1 38 424 578 0 29 420 23 0 +
6 391 432 433 433 434 51 20 80 0 435 401 6 436 --.06 0 0 1 0 0 .018 0 0 -1 40 23
 427 0 1 23 .00152829290996634 .3965015043253545 ??-.01264911064067352 0 -.018 -
.0132226923957979 .00385221938548287 -.01758295782302025 -.0152561769355311 .008
52941584683429 -.01585083800030065 -.0186935650243555 .01376406093127302 -.01159
95959705588 -.0209146466469077 .01665600325303175 -.00682477513439056 -.02190103
774687945 .01787891088378245 -.00208435736133821 -.02180506085882025 .0177612127
698773 .002922211652695295 -.0207475323371952 .0164456711046694 .007317096549659
73 -.0188285556846016 .01394684585016054 .01137916916263482 -.01601699197631675
 .00982568226482987 .01508164341279185 -.01355780236511766 .00487995952560958 .0
173258764577268 -.01270250312284772 .001163436971199184 .01796236104787025 -.012
9374624652764 -.002716235453791335 .0177938771761403 -.014456557500381 -.0069994
3245997983 .0165833635079914 -.0177075206530638 -.01239178307099782 .01305540931
26693 -.0206632430522074 -.01633920479811035 .00755184656659615 -.02181772436038
735 -.0177767571920707 .00282611106189462 -.0218831635392876 -.0178570111297273
 -.00226432186598896 -.02094489967440905 -.01669397563107895 -.00673135778494516
 -.0191500625775853 -.0143779308916628 -.0108293630133341 -.0164531417462341 -.0
1052168585929406 -.01460459265704904 -.01340886835325734 -.004449466317996385 -.
0174413947115767 -.0126491106406736 29047192904766e-30 -.018 41 1 428 H?-.012649
1106406736 29047192904766e-30 -.018 204 92 429 4 0 .0473508893593265 3.754147391
92913 .02 .215680476244756 .0467773076042021 3.786383727414745 .0238522193854828
5 .493664961219204 .0447438230644689 3.907876522568885 .0285294158468343 .870529
168258654 .0413064349756445 4.157022940566005 .033764060931273 1.181914278459414
 .03908535335309235 4.39696764111931 .03665600325303175 1.45473833129747 .038098
96225312055 4.6175031467653 .03787891088378245 1.73386313746607 .038194939141179
75 4.84561050191052 .0377612127698773 1.98942219492817 .0392524676628048 5.05144
31930657 .0364456711046694 2.2551547919981 .0411714443153984 5.25600598959874 .0
3394684585016055 2.564164065973845 .04398300802368325 5.46771937196423 .02982568
226482985 2.86704780201235 .0464421976348823 5.61919567326939 .0248799595256096
 3.076912176580105 .0472974968771523 5.66766121747465 .0211634369711992 3.293073
28095891 .0470625375347236 5.65451912130655 .01728376454620865 3.54098366976667
 .045543442499619 5.56619862785159 .01300056754002016 3.900918162258365 .0422924
7934693625 5.34769977298594 .00760821692900217 4.279442728311565 .03933675694779
26 5.06278070124696 .003660795201889655 4.55473048969684 .03818227563961265 4.84
120452760814 .00222324280792932 4.83851880127144 .0381168364607124 4.60928267061
548 .002142988870272715 5.09566879997845 .03905510032559095 4.401431005038395 .0
03306024368921045 5.35793075035372 .0408499374224147 4.19772340598431 .005622069
1083372 5.65887464885299 .0435468582537659 3.986440447207875 .00947831414070593
 6.03340346946327 .0465911316467427 3.797014856358015 .0155505336820036 16137329
3915367e-29 .0473508893593264 3.754147391929135 .02 14 435 69 437 ?0 411 438 439
 20 +0 0 0 411 440 51 401 265 0 441 390 20 0 -867361737988404e-33 -.02 0 0 1 0 .
02 0 0 1 141 436 420 436 436 20 14 441 240 442 ?443 410 444 5 401 +0 0 443 410 2
6 81 1 442 1573 445 441 446 0 447 448 449 14 443 774 448 ?450 441 451 5 452 -0 0
 450 441 26 14 410 497 447 ?441 399 453 5 391 -411 403 441 399 26 15 444 516 0 3
75 441 454 13 26 56 0 0 0 0 0 0 9 17 14 17 1332 455 ?456 0 457 5 458 -459 459 45
6 0 26 81 1 455 1564 445 17 460 0 0 461 462 14 456 1294 461 ?463 17 464 5 465 +4
66 466 463 17 26 15 457 1331 0 189 17 0 51 458 1230 0 459 465 467 0 -.2056920350
996925 -.028 -.245134221798073 0 1 0 .028 0 0 1 14 459 1202 468 ?469 193 470 5 4
58 -17 17 469 193 26 81 1 468 1586 445 459 471 0 472 473 474 14 469 1206 473 ?46
6 459 475 5 467 +0 0 466 459 26 14 193 1198 472 ?459 476 179 5 477 -0 0 459 476
 26 15 470 1205 0 270 459 0 17 270 0 470 217 478 150 479 267 0 0 +17 217 0 470 4
80 270 145 152 214 0 265 +17 478 0 470 270 480 134 133 237 0 0 -17 479 0 179 481
 180 134 270 267 0 478 -17 481 0 179 129 479 117 137 229 0 482 -17 180 0 179 479
 172 150 156 212 0 270 +17 156 0 483 177 152 153 180 212 0 171 -15 483 1489 0 14
8 484 485 17 177 0 483 148 156 157 171 178 0 486 +17 152 0 483 156 148 150 217 2
14 0 180 -17 148 0 483 152 177 145 486 208 0 217 +17 486 0 475 176 265 157 148 2
08 0 0 -15 475 1316 0 486 469 0 17 176 0 475 40 486 11 159 183 0 0 -17 265 0 475
 486 236 145 480 262 0 0 +17 236 0 475 265 141 100 487 233 0 0 +17 480 0 470 478
 217 100 265 262 0 236 -17 141 0 475 236 488 138 125 244 0 487 -17 487 0 489 482
 133 138 236 233 0 228 -15 489 1218 0 482 490 491 17 482 0 489 137 487 117 228 2
25 0 0 -17 133 0 489 487 137 100 478 237 0 480 +17 228 0 492 125 144 138 482 225
 0 0 +15 492 1197 0 493 476 0 17 125 0 492 493 228 122 141 244 0 488 +17 144 0 4
92 228 493 117 129 271 0 481 -17 493 0 492 144 125 126 247 224 0 0 -17 129 0 179
 194 481 126 144 271 0 494 +17 194 0 179 192 129 118 494 248 0 495 +17 494 0 496
 247 495 126 194 248 0 493 -15 496 1223 0 247 497 498 17 247 0 496 254 494 122 4
93 224 0 0 +17 495 0 496 494 254 118 258 255 0 0 -17 254 0 496 495 247 113 488 2
51 0 0 +17 258 0 457 499 121 113 495 255 0 254 +17 499 0 457 189 258 130 116 266
 0 0 -17 121 0 457 258 189 118 192 195 0 194 +17 189 0 457 121 499 162 39 197 0
 192 -16 195 1326 500 ?121 267 262 263 267 267 1 81 1 500 1553 33 195 0 0 501 26
9 502 80 255 1 33 503 504 9000 0 0 0 0 3 6 0 0 0 FFTFTFTTFFFFFF1 81 1 501 1552 3
3 193 0 472 505 500 506 81 1 269 1554 33 267 0 0 500 507 508 82 255 3 502 19 12
 1 81 1 507 1555 33 266 0 0 269 264 509 82 3 508 19 13 1 16 266 1303 507 ?116 26
2 244 259 262 262 1 81 1 264 1556 33 262 0 0 507 460 510 82 3 509 19 14 1 81 1 4
60 1557 33 17 0 455 264 471 511 82 3 510 19 15 1 81 1 471 1558 33 459 0 468 460
 512 513 82 3 511 19 5 2 81 1 512 1559 33 456 0 461 471 514 515 82 3 513 19 6 2
 81 1 461 1565 445 456 512 0 455 516 517 81 1 514 1560 33 466 0 518 512 0 519 82
 3 515 19 7 2 14 466 1210 518 ?490 469 520 5 465 +456 456 490 469 26 81 1 518 15
88 445 466 514 0 473 521 522 82 3 519 19 8 2 80 1 445 0 523 8001 0 0 0 0 3 5 0 0
 0 FFFFTFTFFFFFFF2 81 1 473 1587 445 469 505 0 468 518 524 81 1 521 1589 445 490
 525 0 518 526 527 83 255 3 522 .917647058823529 .917647058823529 .9176470588235
29 14 490 1215 521 ?497 466 489 5 528 +0 0 497 466 26 81 1 525 1217 33 490 0 521
 132 529 530 81 1 526 1590 445 497 529 0 521 531 532 83 3 527 .917647058823529 .
917647058823529 .917647058823529 14 497 1220 526 ?174 490 496 5 533 -0 0 174 490
 26 81 1 529 1222 33 497 0 526 525 534 535 81 1 531 1591 445 174 536 0 526 537 5
38 83 3 532 .917647058823529 .917647058823529 .917647058823529 14 174 1464 531 ?
186 497 170 5 539 +0 0 186 497 26 81 1 536 1550 33 174 0 531 540 505 541 81 1 53
7 1592 445 186 540 0 531 542 543 83 3 538 .917647058823529 .917647058823529 .917
647058823529 14 186 1481 537 ?484 174 37 5 544 +0 0 484 174 26 81 1 540 1549 33
 186 0 537 545 536 546 81 1 542 1593 445 484 545 0 537 547 548 83 3 543 .9176470
58823529 .917647058823529 .917647058823529 14 484 1486 542 ?0 186 483 5 549 -0 0
 0 186 26 81 1 545 1548 33 484 0 542 190 540 550 81 1 547 1594 445 408 551 0 542
 406 552 83 3 548 .917647058823529 .917647058823529 .917647058823529 14 408 1189
 547 ?403 0 553 16 554 +476 476 403 0 412 81 1 551 1270 33 408 0 547 555 34 556
 81 1 406 1595 445 403 557 0 547 558 559 83 3 552 .917647058823529 .917647058823
529 .917647058823529 81 1 557 662 33 403 0 406 560 346 561 81 1 558 1596 445 407
 562 0 406 563 564 83 3 559 .917647058823529 .917647058823529 .917647058823529 1
4 407 532 558 ?0 403 565 16 400 +0 0 0 403 412 81 1 562 659 33 407 0 558 566 567
 568 81 1 563 1597 445 569 46 0 558 570 571 83 3 564 .917647058823529 .917647058
823529 .917647058823529 14 569 738 563 ?411 0 572 439 573 -574 574 411 0 440 81
 1 46 824 33 569 0 563 575 43 576 81 1 570 1598 445 411 560 0 563 437 577 83 3 5
71 .917647058823529 .917647058823529 .917647058823529 14 411 552 570 ?435 569 57
8 439 391 -403 410 435 569 440 81 1 560 661 33 411 0 570 567 557 579 81 1 437 15
99 445 435 580 0 570 0 581 83 3 577 .917647058823529 .917647058823529 .917647058
823529 81 1 580 657 33 435 0 437 582 566 583 83 3 581 .917647058823529 .91764705
8823529 .917647058823529 81 1 582 656 33 19 0 584 446 580 585 81 1 566 658 33 39
9 0 586 580 562 587 82 3 583 11 2 2 14 399 527 586 ?410 413 588 5 390 -0 0 410 4
13 26 81 1 586 1571 445 399 566 0 589 447 590 82 3 587 11 3 2 81 1 589 1570 445
 413 591 0 592 586 593 81 1 447 1572 445 410 567 0 586 442 594 83 3 590 .9176470
58823529 .917647058823529 .917647058823529 81 1 567 660 33 410 0 447 562 560 595
 83 3 594 .917647058823529 .917647058823529 .917647058823529 82 3 595 11 5 2 14
 413 542 589 ?399 596 597 5 404 -0 0 399 596 26 81 1 591 544 33 413 0 589 379 59
8 599 81 1 592 1569 445 596 598 0 584 589 600 83 3 593 .917647058823529 .9176470
58823529 .917647058823529 14 596 547 592 ?413 19 601 5 414 +0 0 413 19 26 81 1 5
98 549 33 596 0 592 591 602 603 81 1 584 1568 445 19 582 0 604 592 605 83 3 600
 .917647058823529 .917647058823529 .917647058823529 14 19 77 584 ?596 606 607 5
 6 -0 0 596 606 26 81 1 604 1567 445 606 608 0 516 584 609 83 3 605 .91764705882
3529 .917647058823529 .917647058823529 14 606 866 604 ?19 463 610 5 611 -612 612
 19 463 26 81 1 608 1105 33 606 0 604 357 613 614 81 1 516 1566 445 463 615 0 46
1 604 616 83 3 609 .917647058823529 .917647058823529 .917647058823529 14 463 898
 516 ?606 456 617 5 618 +619 619 606 456 26 81 1 615 1107 33 463 0 516 613 620 6
21 83 3 616 .917647058823529 .917647058823529 .917647058823529 81 1 613 1106 33
 612 0 622 608 615 623 81 1 620 1108 33 619 0 624 615 227 625 82 3 621 15 7 2 14
 619 764 624 ?574 450 626 5 618 +463 463 574 450 26 81 1 624 1576 445 619 620 0
 627 628 629 81 1 227 1128 33 225 0 0 620 273 630 82 3 625 15 8 2 81 1 273 1131
 33 244 0 0 227 250 631 82 3 630 16 5 1 81 1 250 1134 33 248 0 0 273 275 632 82
 3 631 16 0 1 81 1 275 1137 33 271 0 0 250 257 633 82 3 632 16 10 1 81 1 257 114
0 33 255 0 0 275 235 634 82 3 633 16 1 1 81 1 235 1146 33 233 0 0 257 242 635 82
 3 634 16 8 1 81 1 242 1152 33 240 0 0 235 232 636 82 3 635 16 7 1 81 1 232 1155
 33 229 0 0 242 239 637 82 3 636 16 13 1 81 1 239 1158 33 237 0 0 232 246 638 82
 3 637 16 11 1 81 1 246 1161 33 224 0 0 239 253 639 82 3 638 16 9 1 81 1 253 116
4 33 251 0 0 246 260 640 82 3 639 16 4 1 81 1 260 1167 33 230 0 0 253 143 641 82
 3 640 16 6 1 81 1 143 1169 33 117 0 0 260 124 642 82 3 641 16 12 1 81 1 124 117
1 33 122 0 0 143 120 643 82 3 642 16 3 0 81 1 120 1173 33 118 0 0 124 128 644 82
 3 643 16 0 0 81 1 128 1175 33 126 0 0 120 140 645 82 3 644 16 4 0 81 1 140 1177
 33 138 0 0 128 115 646 82 3 645 16 2 0 81 1 115 1179 33 113 0 0 140 136 647 82
 3 646 16 1 0 81 1 136 1181 33 134 0 0 115 132 648 82 3 647 16 6 0 81 1 132 1183
 33 100 0 0 136 525 649 82 3 648 16 5 0 82 3 649 16 7 0 81 1 627 1575 445 450 65
0 0 448 624 651 81 1 628 1577 445 574 575 0 624 652 653 83 3 629 .91764705882352
9 .917647058823529 .917647058823529 14 574 759 628 ?654 619 655 5 573 -569 569 6
54 619 26 81 1 575 823 33 574 0 628 27 46 656 81 1 652 1578 445 654 657 0 628 62
2 658 83 3 653 .917647058823529 .917647058823529 .917647058823529 14 654 755 652
 ?612 574 659 5 660 -0 0 612 574 26 81 1 657 1100 33 654 0 652 661 662 663 81 1
 622 1579 445 612 613 0 652 664 665 83 3 658 .917647058823529 .917647058823529 .
917647058823529 14 612 751 622 ?666 654 667 5 611 -606 606 666 654 26 81 1 664 1
580 445 666 661 0 622 668 669 83 3 665 .917647058823529 .917647058823529 .917647
058823529 14 666 747 664 ?670 612 671 5 672 -0 0 670 612 26 81 1 661 1099 33 666
 0 664 673 657 674 81 1 668 1581 445 670 673 0 664 675 676 83 3 669 .91764705882
3529 .917647058823529 .917647058823529 14 670 1008 668 ?677 666 49 5 678 +0 0 67
7 666 26 81 1 673 1098 33 670 0 668 679 661 680 81 1 675 1582 445 677 679 0 668
 681 682 83 3 676 .917647058823529 .917647058823529 .917647058823529 14 677 1029
 675 ?683 670 684 5 685 +0 0 683 670 26 81 1 679 1097 33 677 0 675 686 673 687 8
1 1 681 1583 445 683 686 0 675 688 689 83 3 682 .917647058823529 .91764705882352
9 .917647058823529 14 683 1034 681 ?476 677 690 5 691 -0 0 476 677 26 81 1 686 1
096 33 683 0 681 284 679 692 81 1 688 1584 445 476 555 0 681 472 693 83 3 689 .9
17647058823529 .917647058823529 .917647058823529 14 476 1193 688 ?193 683 694 5
 554 +408 408 193 683 26 81 1 555 1269 33 476 0 688 695 551 696 81 1 472 1585 44
5 193 501 0 688 468 697 83 3 693 .917647058823529 .917647058823529 .917647058823
529 83 3 697 .917647058823529 .917647058823529 .917647058823529 81 1 695 1268 33
 397 0 0 698 555 699 82 3 696 17 0 2 16 397 463 695 ?700 419 381 389 0 0 1 81 1
 698 1267 33 276 0 0 534 695 701 82 3 699 17 1 1 16 276 1120 698 ?702 296 271 39
8 0 0 1 81 1 534 1266 33 1 0 703 529 698 704 82 3 701 17 0 1 81 1 703 1561 705 1
 534 13 0 0 706 82 3 704 6 0 3 80 1 705 707 708 8038 0 0 0 0 0 0 0 0 0 TTTTTTTTT
TTTTF10 81 1 13 1562 707 1 703 2 0 0 709 98 255 6 706 82 111 99 107 101 114 80 1
 707 710 711 8017 0 0 0 0 0 0 0 0 0 TTTTTTTTTTTTTF3 84 255 6 709 Rocker79 255 13
 711 SDL/TYSA_NAME79 14 708 SDL/TYSA_UNAME17 702 0 588 702 702 0 712 276 0 0 +31
 398 585 0 276 389 416 0 +.0771345131623848 0 -.0919253331742774 -.6427876096865
4 0 .766044443118978 .766044443118978 0 .64278760968654 .019 15 588 530 0 702 39
9 713 17 712 0 694 712 712 0 702 276 0 0 -15 694 1196 0 712 476 492 15 713 531 0
 714 399 0 17 714 0 713 714 714 0 396 381 0 0 -17 396 0 715 396 396 0 714 381 0
 0 +15 715 502 0 396 410 716 15 716 503 0 717 410 0 17 717 0 716 717 717 0 718 2
9 0 0 +17 718 0 719 718 718 0 717 29 0 0 -16 29 430 602 ?717 10 426 424 0 0 1 81
 1 602 651 33 29 0 0 598 430 720 81 1 430 652 33 426 0 0 602 395 721 82 3 720 11
 0 1 81 1 395 653 33 381 0 0 430 722 723 82 3 721 11 1 1 81 1 722 654 33 419 0 0
 395 446 724 82 3 723 11 2 1 16 419 460 722 ?725 426 397 416 0 0 1 81 1 446 655
 33 441 0 442 722 582 726 82 3 724 11 3 1 82 3 726 11 0 2 17 725 0 727 725 725 0
 728 419 0 0 +15 727 536 0 725 407 0 17 728 0 409 728 728 0 725 419 0 0 -15 409
 567 0 728 403 0 15 719 380 0 718 19 0 17 700 0 553 700 700 0 729 397 0 0 +15 55
3 1192 0 700 408 0 17 729 0 565 729 729 0 700 397 0 0 -15 565 535 0 729 407 727
 50 554 1227 0 476 477 685 0 +.0913063353600859 -.028 -.0800337623950763 -.64278
7609686541 0 .766044443118977 .766044443118977 0 .642787609686541 50 477 1228 0
 193 467 554 0 +.0582564191937995 -.028 -.1129875640179764 .766044443118978 0 .6
42787609686539 .642787609686539 0 -.766044443118978 50 685 1047 0 677 554 691 0
 +-.0571539824501536 .02 -.1225671108990364 0 -1 0 1 0 0 50 691 1046 0 683 685 6
78 0 +-.0571539824501536 -.02 -.1225671108990364 0 -1 0 1 0 0 50 678 1042 0 670
 691 730 0 +-.128 .02 0 -1 0 0 0 0 1 50 730 787 0 450 678 452 0 +-.0571539824501
536 -.028 -.1225671108990364 0 -1 0 1 0 0 14 450 769 627 ?619 443 731 5 730 +0 0
 619 443 26 50 452 786 0 443 730 611 0 +-.0571539824501536 .028 -.12256711089903
64 0 -1 0 1 0 0 51 611 785 0 612 452 618 0 --.32 -.028 0 0 1 0 .028 0 0 1 51 618
 784 0 619 611 672 0 --.32 -.028 1224646799147352e-33 0 1 0 .02 0 0 1 50 672 783
 0 666 618 573 0 +-.124 -.028 .028 0 0 -1 -1 0 0 50 573 782 0 574 672 660 0 +-.1
2 -.028 -.014 -1 0 0 0 0 1 50 660 781 0 654 573 414 0 +-.124 -.028 -.028 0 0 1 1
 0 0 50 414 576 0 596 660 404 0 +-.0571539824501536 -.02 -.1225671108990364 0 -1
 0 1 0 0 15 731 772 0 330 450 732 17 330 0 731 56 84 57 733 327 0 734 +15 732 77
3 0 735 450 0 17 735 0 732 735 735 0 334 331 0 0 -17 334 0 736 334 334 0 735 331
 0 0 +15 736 767 0 334 619 0 17 56 0 731 87 330 45 80 335 0 737 +17 84 0 731 330
 87 81 738 323 0 739 +17 733 0 671 367 734 81 330 327 0 0 -17 734 0 671 733 305
 57 364 361 0 0 -15 671 842 0 318 666 0 17 305 0 671 734 318 96 54 302 0 364 +17
 364 0 667 309 80 96 734 361 0 0 +15 667 754 0 364 612 0 17 309 0 667 737 364 92
 99 306 0 358 +17 80 0 667 364 737 57 56 335 0 330 -17 737 0 667 80 309 45 358 3
55 0 740 -17 358 0 659 312 740 92 737 355 0 0 +17 740 0 659 358 741 45 87 320 0
 0 -15 659 758 0 358 654 0 17 741 0 659 740 75 64 371 368 0 738 -17 87 0 731 84
 56 64 740 320 0 741 +17 75 0 659 741 63 73 742 319 0 371 +17 371 0 743 72 738 7
3 741 368 0 744 +17 738 0 743 371 739 64 84 323 0 0 -15 743 763 0 72 574 0 17 73
9 0 743 738 72 81 367 338 0 733 -17 72 0 743 739 371 69 744 341 0 367 +17 367 0
 671 347 733 69 739 338 0 745 +17 347 0 671 746 367 65 745 344 0 0 +17 745 0 451
 744 747 69 347 344 0 0 -15 451 777 0 745 443 748 17 744 0 451 742 745 73 72 341
 0 0 -17 747 0 451 745 742 65 354 324 0 347 -17 742 0 451 747 744 60 75 319 0 0
 -17 354 0 610 749 68 60 747 324 0 742 +15 610 865 0 750 606 0 17 749 0 610 750
 354 104 63 360 0 0 -17 68 0 610 354 750 65 746 359 0 747 +17 750 0 610 68 749 1
08 107 289 0 746 -17 746 0 671 751 347 108 68 359 0 0 -16 359 837 662 ?68 361 35
5 356 361 361 1 81 1 662 1101 33 359 0 0 657 363 752 81 1 363 1102 33 361 0 0 66
2 753 754 82 3 752 15 12 1 81 1 753 1103 33 360 0 0 363 357 755 82 3 754 15 13 1
 16 360 860 753 ?63 355 368 352 355 355 1 81 1 357 1104 33 355 0 0 753 608 756 8
2 3 755 15 14 1 82 3 756 15 15 1 17 63 0 659 75 757 60 749 360 0 354 +17 757 0 6
59 63 758 104 103 292 0 749 -17 758 0 659 757 312 76 51 295 0 0 -17 103 0 759 76
0 107 76 757 292 0 285 +15 759 1033 0 760 677 0 17 760 0 759 111 103 91 285 281
 0 751 -17 107 0 759 103 111 104 750 289 0 757 +17 285 0 49 51 50 76 760 281 0 7
58 +15 49 1011 0 44 670 0 17 51 0 49 44 285 88 758 295 0 52 +17 50 0 49 285 44 9
1 318 315 0 760 -17 318 0 671 305 751 32 50 315 0 0 +17 751 0 671 318 746 91 111
 286 0 0 -17 111 0 759 107 760 108 751 286 0 750 +17 52 0 761 95 54 88 44 53 0 3
12 +15 761 1038 0 52 683 0 17 95 0 761 99 52 92 312 282 0 309 -17 54 0 761 52 99
 32 305 302 0 318 -17 312 0 659 758 358 88 95 282 0 0 +17 99 0 761 54 95 96 309
 306 0 305 -15 748 778 0 351 443 0 17 351 0 748 351 351 0 762 348 0 0 +17 762 0
 617 762 762 0 351 348 0 0 -15 617 768 0 762 463 763 15 763 895 0 280 463 0 17 2
80 0 763 280 280 0 764 277 0 0 +17 764 0 684 764 764 0 280 277 0 0 -15 684 1032
 0 764 677 759 50 467 1229 0 469 458 477 0 +.1011549080084622 -.028 -.0769914578
755301 .766044443118979 0 .642787609686539 .642787609686539 0 -.766044443118979
 81 1 284 1095 33 281 0 0 301 686 765 82 3 692 15 0 2 81 1 301 1094 33 53 0 0 27
9 284 766 82 3 765 15 11 1 81 1 279 1093 33 277 0 0 298 301 767 82 3 766 15 10 1
 81 1 298 1092 33 296 0 0 314 279 768 82 3 767 15 9 1 81 1 314 1091 33 295 0 0 2
94 298 769 82 3 768 15 8 1 81 1 294 1090 33 292 0 0 311 314 770 82 3 769 15 7 1
 81 1 311 1089 33 282 0 0 291 294 771 82 3 770 15 6 1 81 1 291 1088 33 289 0 0 3
08 311 772 82 3 771 15 5 1 81 1 308 1087 33 306 0 0 317 291 773 82 3 772 15 4 1
 81 1 317 1086 33 315 0 0 288 308 774 82 3 773 15 3 1 81 1 288 1085 33 286 0 0 3
04 317 775 82 3 774 15 2 1 81 1 304 1084 33 302 0 0 102 288 776 82 3 775 15 1 1
 81 1 102 1083 33 76 0 0 90 304 777 82 3 776 15 0 1 81 1 90 1082 33 88 0 0 106 1
02 778 82 3 777 15 7 0 81 1 106 1081 33 104 0 0 94 90 779 82 3 778 15 6 0 81 1 9
4 1080 33 92 0 0 110 106 780 82 3 779 15 5 0 81 1 110 1079 33 108 0 0 98 94 781
 82 3 780 15 4 0 81 1 98 1078 33 96 0 0 47 110 782 82 3 781 15 3 0 81 1 47 1077
 33 91 0 0 43 98 783 82 3 782 15 2 0 82 3 783 15 1 0 15 690 1037 0 299 683 761 1
7 299 0 690 299 299 0 784 296 0 0 +17 784 0 626 784 784 0 299 296 0 0 -15 626 88
9 0 784 619 736 82 3 687 15 1 2 82 3 680 15 2 2 82 3 674 15 3 2 82 3 663 15 4 2
 81 1 27 822 33 10 0 0 785 575 786 82 3 656 13 0 2 81 1 785 821 33 22 0 0 787 27
 788 82 3 786 13 1 1 16 22 677 785 ?789 382 361 7 0 0 1 81 1 787 776 33 443 0 44
8 650 785 790 82 3 788 13 0 1 81 1 448 1574 445 443 787 0 442 627 791 81 1 650 7
71 33 450 0 627 67 787 792 82 3 790 12 0 2 81 1 67 737 33 65 0 0 83 650 793 82 3
 792 12 1 2 81 1 83 735 33 81 0 0 86 67 794 82 3 793 12 2 0 81 1 86 733 33 64 0
 0 55 83 795 82 3 794 12 1 0 81 1 55 731 33 45 0 0 71 86 796 82 3 795 12 7 0 81
 1 71 729 33 69 0 0 74 55 797 82 3 796 12 5 0 81 1 74 727 33 73 0 0 79 71 798 82
 3 797 12 0 0 81 1 79 725 33 57 0 0 62 74 799 82 3 798 12 6 0 81 1 62 723 33 60
 0 0 350 79 800 82 3 799 12 3 0 81 1 350 721 33 348 0 0 326 62 801 82 3 800 12 4
 0 81 1 326 718 33 323 0 0 322 350 802 82 3 801 12 12 1 81 1 322 715 33 320 0 0
 337 326 803 82 3 802 12 5 1 81 1 337 712 33 335 0 0 329 322 804 82 3 803 12 11
 1 81 1 329 709 33 327 0 0 333 337 805 82 3 804 12 9 1 81 1 333 706 33 331 0 0 3
70 329 806 82 3 805 12 7 1 81 1 370 703 33 368 0 0 343 333 807 82 3 806 12 13 1
 81 1 343 700 33 341 0 0 340 370 808 82 3 807 12 3 1 81 1 340 694 33 319 0 0 353
 343 809 82 3 808 12 4 1 81 1 353 688 33 324 0 0 366 340 810 82 3 809 12 10 1 81
 1 366 685 33 338 0 0 346 353 811 82 3 810 12 8 1 81 1 346 682 33 344 0 0 557 36
6 812 82 3 811 12 0 1 82 3 812 12 6 1 83 3 791 .917647058823529 .917647058823529
 .917647058823529 17 789 0 607 789 789 0 813 22 0 0 +15 607 76 0 789 19 719 17 8
13 0 655 813 813 0 789 22 0 0 -15 655 762 0 813 574 743 83 3 651 .91764705882352
9 .917647058823529 .917647058823529 82 3 623 15 6 2 82 3 614 15 5 2 82 3 603 10
 2 2 15 601 550 0 380 596 814 17 380 0 601 380 380 0 815 376 0 0 +15 814 551 0 8
16 596 0 17 816 0 814 816 816 0 375 372 0 0 -17 375 0 444 375 375 0 816 372 0 0
 +17 815 0 453 815 815 0 380 376 0 0 -15 453 500 0 815 410 817 15 817 501 0 388
 410 715 17 388 0 817 388 388 0 818 377 0 0 +17 818 0 597 818 818 0 388 377 0 0
 -15 597 545 0 818 413 819 15 819 546 0 385 413 0 17 385 0 819 385 385 0 820 382
 0 0 +17 820 0 454 820 820 0 385 382 0 0 -15 454 517 0 820 441 0 81 1 379 471 33
 376 0 0 384 591 821 82 3 599 10 1 2 81 1 384 468 33 382 0 0 374 379 822 82 3 82
1 10 3 1 81 1 374 444 33 372 0 0 387 384 823 82 3 822 10 0 1 81 1 387 426 33 377
 0 0 0 374 824 82 3 823 10 1 1 82 3 824 10 2 1 82 3 585 11 1 2 82 3 579 11 6 2 1
5 578 555 0 825 411 0 13 439 673 0 1 0 569 0 0 18 0 13 440 780 0 0 0 0 0 0 826 5
69 19 826 779 0 1 18 25 440 V0 19 18 48 0 1 0 826 5 S0 19 25 1260 0 1 826 9 412
 V0 13 412 1259 0 0 0 0 0 0 25 408 17 825 0 578 825 825 0 431 426 0 0 -17 431 0
 827 431 431 0 825 426 0 0 +15 827 96 0 431 435 0 82 3 576 13 1 2 15 572 741 0 2
8 569 0 17 28 0 572 28 28 0 828 10 0 0 +17 828 0 438 828 828 0 28 10 0 0 -15 438
 68 0 828 435 827 82 3 568 11 4 2 13 16 1258 0 1 439 408 0 0 18 0 82 3 561 11 7
 2 81 1 34 1528 33 157 0 0 551 30 829 82 3 556 17 1 2 82 3 829 19 0 0 81 1 190 1
547 33 175 0 0 211 545 830 82 3 550 19 0 2 81 1 211 1546 33 178 0 0 206 190 831
 82 3 830 19 11 1 81 1 206 1545 33 184 0 0 219 211 832 82 3 831 19 10 1 81 1 219
 1544 33 218 0 0 182 206 833 82 3 832 19 9 1 81 1 182 1543 33 173 0 0 196 219 83
4 82 3 833 19 8 1 82 3 834 19 7 1 50 549 1498 0 484 544 539 0 +-.057153982450153
6 -.02 -.1225671108990364 0 -1 0 1 0 0 50 544 1499 0 186 0 549 0 +-.057153982450
1536 .02 -.1225671108990364 0 -1 0 1 0 0 50 539 1494 0 174 549 528 0 +.082276814
0398771 .02 -.0980536887192291 .64278760968654 0 -.766044443118978 -.76604444311
8978 0 -.64278760968654 50 528 1233 0 490 539 533 0 +-.0571539824501536 -.028 -.
1225671108990364 0 -1 0 1 0 0 50 533 1232 0 497 528 465 0 +-.0571539824501536 .0
28 -.1225671108990364 0 -1 0 1 0 0 51 465 1231 0 466 533 458 0 -.205692035099693
 -.028 -.245134221798073 0 1 0 .02 0 0 1 82 3 546 19 1 2 81 1 505 1551 33 469 0
 473 536 501 835 82 3 541 19 2 2 82 3 835 19 3 2 82 3 535 16 1 2 82 3 530 16 2 2
 83 3 524 .917647058823529 .917647058823529 .917647058823529 79 15 523 SDL/TYSA_
COLOUR15 520 1285 0 836 466 837 17 836 0 520 836 836 0 220 218 0 0 -15 837 1213
 0 243 466 0 17 243 0 837 243 243 0 838 240 0 0 +17 838 0 491 838 838 0 243 240
 0 0 -15 491 1219 0 838 490 0 17 220 0 485 220 220 0 836 218 0 0 +15 485 1490 0
 220 484 0 83 3 517 .917647058823529 .917647058823529 .917647058823529 17 116 0
 475 488 40 113 499 266 0 258 +17 488 0 475 141 116 122 254 251 0 247 -17 40 0 4
75 116 176 130 31 41 0 499 +16 41 1421 839 ?40 175 218 203 0 0 1 81 1 839 1537 3
3 41 0 0 168 223 840 30 203 1513 0 41 0 191 0 +.165433668977116 .02 -.1535959021
87428 .642787609686539 0 -.766044443118978 81 1 168 1536 33 208 0 0 166 839 841
 81 1 223 1538 33 183 0 0 839 216 842 82 3 840 19 1 1 81 1 216 1539 33 214 0 0 2
23 201 843 82 3 842 19 2 1 81 1 201 1540 33 197 0 0 216 199 844 82 3 843 19 3 1
 81 1 199 1541 33 212 0 0 201 196 845 82 3 844 19 4 1 82 3 845 19 5 1 82 3 841 1
9 0 1 82 3 506 19 4 2 79 9 504 BTI/DetId17 39 0 37 31 165 130 189 197 0 40 +15 4
98 1224 0 261 497 0 17 261 0 498 261 261 0 846 230 0 0 +17 846 0 464 846 846 0 2
61 230 0 0 -15 464 1214 0 846 456 847 15 847 1291 0 207 456 0 17 207 0 847 207 2
07 0 848 184 0 0 +17 848 0 187 848 848 0 207 184 0 0 -15 187 1485 0 848 186 0 17
 137 0 489 133 482 134 481 229 0 479 +17 159 0 170 171 42 157 176 183 0 177 +83
 3 474 .917647058823529 .917647058823529 .917647058823529 83 3 462 .917647058823
529 .917647058823529 .917647058823529 83 3 449 .917647058823529 .917647058823529
 .917647058823529 31 23 85 0 10 424 7 0 +-.12 0 0 1 0 0 0 0 -1 .018 40 24 432 0
 1 24 .00143274572027904 .3820539457136565 ??-.01109053650640944 0 -.019 -.01168
921130065512 .003692920366236105 -.018637659165481 -.01388650589381376 .00835673
656033995 -.0170635563134148 -.01797617895973375 .01414719088697014 -.0126829409
053117 -.0205934916577419 .0173519998460547 -.00774003238639981 -.02181694957655
845 .0187877430476918 -.002832086011036465 -.0218636894614635 .0188419987492651
 .002445216377479095 -.02084144394442355 .0176455599426186 .00704515537880136 -.
0188885064645137 .01528972453839415 .01127937602618276 -.01509602326157515 .0102
4157792110254 .0160034396829552 -.01217233204145136 .00501653937763285 .01832578
327582915 -.01119354369846782 .00151506452981563 .01893949786743285 -.0113068311
951525 -.002201006968564855 .018872084366183 -.0127055384055157 -.00619925045259
762 .01796021419209605 -.01624920702173895 -.01187588854929682 .0148311587937248
6 -.01981294369342565 -.0164180613288795 .00956280618862224 -.02149887566206095
 -.01841742801622295 .00466886980620004 -.0219831345493355 -.0189804690304056 -.
000861275441315798 -.0212570200026629 -.018134522309496 -.00566913579008229 -.01
96031570495046 -.016164274382339 -.0099858016049018 -.0161925145578765 -.0117982
0018931024 -.01489303435479012 -.01258813188265578 -.00595491933573688 -.0180426
9757283725 -.01130928290325212 -.002213567208328825 -.01887061525796685 -.011090
5365064095 1451413200462608e-32 -.019 41 1 433 H?-.0110905365064095 145141320046
2608e-32 -.019 204 96 434 4 0 .0489094634935906 3.66994991788004 .02 .1956092780
80971 .0483107886993449 3.70175977667869 .0236929203662361 .455407412414355 .046
1134941061862 3.82469824799016 .02835673656033995 .839918911631288 .042023821040
26625 4.097953538999905 .03414719088697015 1.151223766230864 .0394065083422581 4
.352874651248875 .0373519998460547 1.421181616093944 .03818305042344155 4.583299
5707227 .0387877430476918 1.699849854479545 .0381363105385365 4.82376530127865 .
0388419987492651 1.950664078134695 .03915855605557645 5.03836581922303 .03764555
99426186 2.206385042391605 .0411114935354863 5.25071433124035 .03528972453839415
 2.57230710122568 .04490397673842485 5.52695674858158 .03024157792110255 2.87439
6228261125 .0478276679585486 5.69687920995563 .02501653937763285 3.0617676676710
5 .0488064563015322 5.74939797951233 .02151506452981565 3.25769579374544 .048693
1688048475 5.74340578606188 .01779899303143515 3.4739542994097 .0472944615944843
 5.66749222721488 .01380074954740238 3.8167840960725 .04375079297826105 5.452193
5526739 .00812411145070317 4.18496901515174 .04018705630657435 5.162064138878 .0
0358193867112049 4.464116279134225 .03850112433793905 4.92623651442156 .00158257
198377707 4.7577348055178 .0380168654506645 4.67323008962641 .001019530969594406
 5.01537922176021 .0387429799973371 4.45176036314547 .001865477690504015 5.26577
219505041 .0403968429504954 4.241251568080905 .003835725617661025 5.613221134126
85 .0438074854421235 3.96876984567253 .00820179981068975 5.9643963061292 .047411
8681173442 3.750763699589575 .01404508066426312 6.16641659516897 .04869071709674
79 3.68150209165147 .0177864327916712 763901684454004e-30 .0489094634935905 3.66
9949917880045 .02 40 23 421 0 1 23 .00152829290996632 .396501504325363 ??.021919
4915695207 0 .001880396057672745 .0219687099726353 .003852219385482855 .00117293
7397406 .02194892787425435 .00852941584683426 -.001498187294961572 .020901798014
1972 .01376406093127302 -.00686402504174561 .01867175679284085 .0166560032530317
5 -.01163466794837746 .01567442607709855 .0178789108837825 -.01543736917850875 .
01177747895034582 .0177612127698773 -.01858200714600445 .00773103556628799 .0164
4567110466945 -.02059687085634105 .00338581299800771 .0139468458501606 -.0217378
994004141 -.001257685142646038 .00982568226482994 -.02196402121839185 -.00455760
400773112 .00487995952560962 -.0215227378766902 -.00559495524664679 .00116343697
1199226 -.02127666505324605 -.00531486015885966 -.002716235453791305 -.021348355
0066924 -.003411097423553045 -.00699943245997979 -.02173394612966155 .0013811511
17443704 -.0123917830709978 -.0219566031432641 .00749702651227216 -.016339204798
11035 -.02068319592022215 .01185923621581162 -.0177767571920707 -.01852993568196
02 .0158007975666719 -.01785701112972735 -.0153079977873351 .01861964122264065 -
.016693975631079 -.01171789062673576 .02060519630847645 -.01437793089166286 -.00
770881865717107 .02176364270384425 -.01052168585929416 -.003216186602081325 .021
9799379364398 -.004449466317996495 .000939323325727194 .0219194915695207 2643567
407689125e-32 .00188039605767268 41 1 422 H?.0219194915695207 2643567407689125e-
32 .00188039605767268 204 92 423 4 0 .0473508893593266 1.4852193643365 .02 .2156
80476244755 .0467773076042022 1.517455699822115 .02385221938548285 .493664961219
201 .04474382306446905 1.63894849497625 .02852941584683425 .870529168258652 .041
3064349756446 1.888094912973375 .033764060931273 1.181914278459412 .039085353353
09245 2.12803961352668 .03665600325303175 1.45473833129747 .03809896225312065 2.
34857511917267 .0378789108837825 1.73386313746607 .03819493914117985 2.576682474
317895 .0377612127698773 1.98942219492817 .0392524676628049 2.78251516547307 .03
644567110466945 2.255154791998095 .0411714443153985 2.98707796200611 .0339468458
501606 2.56416406597384 .04398300802368335 3.198791344371605 .02982568226482995
 2.867047802012345 .0464421976348824 3.350267645676765 .0248799595256096 3.07691
2176580105 .0472974968771524 3.398733189882025 .02116343697119925 3.293073280958
905 .0470625375347237 3.38559109371392 .0172837645462087 3.540983669766665 .0455
434424996192 3.29727060025896 .0130005675400202 3.90091816225836 .04229247934693
635 3.07877174539332 .0076082169290022 4.27944272831156 .0393367569477927 2.7938
52673654335 .003660795201889655 4.55473048969684 .03818227563961275 2.5722765000
1552 .002223242807929295 4.83851880127143 .03811683646071245 2.34035464302285 .0
02142988870272675 5.09566879997844 .039055100325591 2.13250297744577 .0033060243
6892099 5.35793075035371 .04084993742241475 1.92879537839168 .00562206910833713
 5.65887464885299 .043546858253766 1.717512419615245 .00947831414070584 6.033403
46946326 .0465911316467428 1.528086828765385 .0155505336820035 146864855982729e-
29 .0473508893593266 1.485219364336502 .02 141 415 416 415 415 400 141 402 386 4
02 402 390 82 3 200 19 6 1 81 1 155 1534 33 153 0 0 161 166 849 82 3 169 19 7 0
 81 1 161 1533 33 130 0 0 147 155 850 82 3 849 19 6 0 81 1 147 1532 33 145 0 0 1
64 161 851 82 3 850 19 5 0 81 1 164 1531 33 162 0 0 35 147 852 82 3 851 19 4 0 8
1 1 35 1530 33 150 0 0 30 164 853 82 3 852 19 3 0 82 3 853 19 2 0 82 3 48 15 0 0
 82 3 36 19 1 0 141 21 424 21 21 6 74 4 CI16 index_map_offset0 0 1 dCCZ20 15 5 0
 0 514 703 13 2 437 0 0 0 0 0 0 0 0 0 0 0 0 0 0 0 80 1 12 445 854 8040 0 0 0 0 3
 5 0 0 0 TTTFFFFFFFFFFF2 83 3 14 .917647058823529 .917647058823529 .917647058823
529 79 17 854 SDL/TYSA_COLOUR_21 0 
